<svg width="47" height="58" viewBox="0 0 47 58" fill="none" xmlns="http://www.w3.org/2000/svg">
<g clip-path="url(#clip0_907_352)">
<path d="M3 16.2158H29V47.6403H3V16.2158Z" fill="#FFC633"/>
<path d="M43.0833 6.81494H3.91667C1.75434 6.81494 0 8.9353 0 11.5488V46.2634C0 48.8768 1.75434 50.9972 3.91667 50.9972H43.0833C45.2457 50.9972 47 48.8768 47 46.2634V11.5488C47 8.9353 45.2457 6.81494 43.0833 6.81494ZM14.3611 16.2826C17.2415 16.2826 19.5833 19.113 19.5833 22.5943C19.5833 26.0756 17.2415 28.9061 14.3611 28.9061C11.4807 28.9061 9.13889 26.0756 9.13889 22.5943C9.13889 19.113 11.4807 16.2826 14.3611 16.2826ZM23.5 39.636C23.5 40.6814 22.684 41.5296 21.6722 41.5296H7.05C6.03819 41.5296 5.22222 40.6814 5.22222 39.636V37.7425C5.22222 34.6064 7.6783 32.0619 10.7056 32.0619H11.1135C12.1172 32.5649 13.2106 32.8509 14.3611 32.8509C15.5116 32.8509 16.6132 32.5649 17.6087 32.0619H18.0167C21.0439 32.0619 23.5 34.6064 23.5 37.7425V39.636ZM41.7778 34.4289C41.7778 34.8628 41.484 35.2178 41.125 35.2178H29.375C29.016 35.2178 28.7222 34.8628 28.7222 34.4289V32.8509C28.7222 32.417 29.016 32.0619 29.375 32.0619H41.125C41.484 32.0619 41.7778 32.417 41.7778 32.8509V34.4289ZM41.7778 28.1171C41.7778 28.551 41.484 28.9061 41.125 28.9061H29.375C29.016 28.9061 28.7222 28.551 28.7222 28.1171V26.5392C28.7222 26.1052 29.016 25.7502 29.375 25.7502H41.125C41.484 25.7502 41.7778 26.1052 41.7778 26.5392V28.1171ZM41.7778 21.8053C41.7778 22.2393 41.484 22.5943 41.125 22.5943H29.375C29.016 22.5943 28.7222 22.2393 28.7222 21.8053V20.2274C28.7222 19.7935 29.016 19.4384 29.375 19.4384H41.125C41.484 19.4384 41.7778 19.7935 41.7778 20.2274V21.8053Z" fill="#33CCC3"/>
</g>
<defs>
<clipPath id="clip0_907_352">
<rect width="47" height="56.8058" fill="white" transform="translate(0 0.503418)"/>
</clipPath>
</defs>
</svg>
