<svg width="40" height="40" viewBox="0 0 40 40" fill="none" xmlns="http://www.w3.org/2000/svg">
<path d="M36.25 0H18.75C16.6797 0 15 1.67891 15 3.75V39.9297L37.5 40C38.8805 40 40 38.8805 40 37.5V3.75C40 1.67891 38.3203 0 36.25 0ZM25 23.75C25 24.4403 24.4403 25 23.75 25H21.25C20.5625 25 20 24.4375 20 23.75V21.25C20 20.5625 20.5625 20 21.25 20H23.75C24.4375 20 25 20.5625 25 21.25V23.75ZM25 16.25C25 16.9375 24.4375 17.5 23.75 17.5H21.25C20.5625 17.5 20 16.9375 20 16.25V13.75C20 13.0625 20.5625 12.5 21.25 12.5H23.75C24.4375 12.5 25 13.0625 25 13.75V16.25ZM25 8.75C25 9.4375 24.4375 10 23.75 10H21.25C20.5625 10 20 9.4375 20 8.75V6.25C20 5.55937 20.5625 5 21.25 5H23.75C24.4375 5 25 5.55937 25 6.25V8.75ZM35 23.75C35 24.4403 34.4403 25 33.75 25H31.25C30.5625 25 30 24.4375 30 23.75V21.25C30 20.5625 30.5625 20 31.25 20H33.75C34.4375 20 35 20.5625 35 21.25V23.75ZM35 16.25C35 16.9375 34.4375 17.5 33.75 17.5H31.25C30.5625 17.5 30 16.9375 30 16.25V13.75C30 13.0625 30.5625 12.5 31.25 12.5H33.75C34.4375 12.5 35 13.0625 35 13.75V16.25ZM35 8.75C35 9.4375 34.4375 10 33.75 10H31.25C30.5625 10 30 9.4375 30 8.75V6.25C30 5.55937 30.5625 5 31.25 5H33.75C34.4375 5 35 5.55937 35 6.25V8.75Z" fill="#33CCC3"/>
<path d="M3.75 10C1.67891 10 0 11.6789 0 13.75V37.5C0 38.8805 1.11953 40 2.5 40L15 39.9977V10H3.75ZM10 26.25C10 26.9403 9.44031 27.5 8.75 27.5H6.25C5.55969 27.5 5 26.9403 5 26.25V23.75C5 23.0595 5.55969 22.5 6.25 22.5H8.75C9.44031 22.5 10 23.0595 10 23.75V26.25ZM10 18.75C10 19.4403 9.44031 20 8.75 20H6.25C5.55969 20 5 19.4403 5 18.75V16.25C5 15.5595 5.55969 15 6.25 15H8.75C9.44031 15 10 15.5595 10 16.25V18.75Z" fill="#FFC633"/>
</svg>
