<svg width="49" height="48" viewBox="0 0 49 48" fill="none" xmlns="http://www.w3.org/2000/svg">
<g clip-path="url(#clip0_403_1484)">
<path d="M46.2778 41.7174C46.2778 42.5627 45.6755 44.651 43.5556 44.651C42.9373 44.6515 42.3372 44.4252 41.8542 44.0093L34.6233 37.7755C31.7017 35.2654 28.2031 33.6562 24.5 33.1194V12.184C28.203 11.647 31.7016 10.0379 34.6233 7.52796L41.8542 1.2896C42.337 0.873234 42.9372 0.646858 43.5556 0.647892C45.6823 0.647892 46.2778 2.78021 46.2778 3.58143V41.7174Z" fill="#FFC633"/>
<path d="M46.2778 17.5964V27.7024C47.1047 27.1937 47.7921 26.4583 48.2702 25.5709C48.7484 24.6834 49.0002 23.6756 49.0002 22.6494C49.0002 21.6233 48.7484 20.6154 48.2702 19.7279C47.7921 18.8405 47.1047 18.1051 46.2778 17.5964ZM0 18.2491V27.0497C0 28.6058 0.57361 30.0981 1.59464 31.1984C2.61567 32.2987 4.00049 32.9168 5.44444 32.9168H8.31128C8.18958 33.8892 8.12763 34.8691 8.12583 35.8503C8.12518 39.3743 8.86874 42.8522 10.3002 46.0205C10.7417 47.0005 11.7056 47.5845 12.7162 47.5845H19.0351C21.2512 47.5845 22.5817 44.849 21.2384 42.9495C19.7932 40.9108 19.0114 38.4158 19.0139 35.8503C19.0167 34.8588 19.1429 33.8722 19.389 32.9168H21.7778V12.382H5.44444C4.00049 12.382 2.61567 13.0002 1.59464 14.1004C0.57361 15.2007 0 16.6931 0 18.2491Z" fill="#33CCC3"/>
</g>
<defs>
<clipPath id="clip0_403_1484">
<rect width="49" height="46.9366" fill="white" transform="translate(0 0.647888)"/>
</clipPath>
</defs>
</svg>
