<svg width="35" height="35" viewBox="0 0 35 35" fill="none" xmlns="http://www.w3.org/2000/svg">
<path d="M31.7188 6.5625H25.7031L24.8568 4.31484C24.377 3.03379 23.1602 2.1875 21.793 2.1875H13.2139C11.8467 2.1875 10.6162 3.03379 10.1377 4.31484L9.29688 6.5625H3.28125C1.46973 6.5625 0 8.03223 0 9.84375V29.5312C0 31.3428 1.46973 32.8125 3.28125 32.8125H31.7188C33.5303 32.8125 35 31.3428 35 29.5312V9.84375C35 8.03223 33.5303 6.5625 31.7188 6.5625ZM17.5 26.25C13.877 26.25 10.9375 23.3105 10.9375 19.6875C10.9375 16.0645 13.877 13.125 17.5 13.125C21.123 13.125 24.0625 16.0645 24.0625 19.6875C24.0625 23.3105 21.123 26.25 17.5 26.25Z" fill="#33CCC3"/>
<path d="M17.5 26.25C13.877 26.25 10.9375 23.3105 10.9375 19.6875C10.9375 16.0645 13.877 13.125 17.5 13.125C21.123 13.125 24.0625 16.0645 24.0625 19.6875C24.0625 23.3105 21.123 26.25 17.5 26.25Z" fill="#FFC633"/>
</svg>
