<svg width="39" height="39" viewBox="0 0 39 39" fill="none" xmlns="http://www.w3.org/2000/svg">
<path d="M8.46274 23.1563C9.48345 24.1084 11.0297 24.1084 11.9743 23.1563L15.8438 19.2944L20.2145 23.6651C20.6883 24.1389 21.3129 24.375 21.9375 24.375C22.5622 24.375 23.1852 24.137 23.6606 23.6609L35.3453 11.9762C36.2967 11.0248 36.2967 9.48152 35.3454 8.52938C34.3932 7.57723 32.85 7.57723 31.8986 8.52924L21.9375 18.4946L17.5653 14.1223C16.6131 13.1701 15.0707 13.1701 14.1185 14.1223L8.46274 19.7133C7.57915 20.6578 7.57915 22.2041 8.46274 23.1563Z" fill="#FFC633"/>
<path d="M36.5625 31.6875H4.875V4.80646C4.875 3.52906 3.78346 2.43752 2.4375 2.43752C1.09154 2.43752 0 3.52906 0 4.80646V34.125C0 35.4656 1.09687 36.5625 2.4375 36.5625H36.5625C37.9107 36.5625 39 35.4733 39 34.125C39 32.7768 37.9107 31.6875 36.5625 31.6875Z" fill="#33CCC3"/>
</svg>
