<svg xmlns="http://www.w3.org/2000/svg" enable-background="new 0 0 640 512" viewBox="0 0 640 512">
    <path d="M231.3 394.2c0-40.4 22.9-77 58.3-95.6 5.5-60 56.9-107.1 119.2-107.1 11.9 0 23.6 1.8 34.7 5.1V96.7c0-35.3-28.6-63.9-63.9-63.9H63.9C28.6 32.8 0 61.4 0 96.7v315.6c0 35.3 28.6 63.9 63.9 63.9h205.6c-23.4-19.9-38.2-49.2-38.2-82zM92.4 272.5c0 8-6.5 14.4-14.4 14.4-8 0-14.4-6.5-14.4-14.4V108c0-8 6.5-14.4 14.4-14.4 8 0 14.4 6.5 14.4 14.4v164.5zm66.1 0c0 8-6.5 14.4-14.4 14.4-8 0-14.4-6.5-14.4-14.4V108c0-8 6.5-14.4 14.4-14.4 8 0 14.4 6.5 14.4 14.4v164.5zm66.1 0c0 8-6.5 14.4-14.4 14.4-8 0-14.4-6.5-14.4-14.4V108c0-8 6.5-14.4 14.4-14.4 8 0 14.4 6.5 14.4 14.4v164.5z"/>
    <path d="M578.3 329.7c2.5-6.3 3.9-13.2 3.9-20.4 0-31.3-25.9-56.7-57.8-56.7-11.9 0-22.9 3.5-32.1 9.6-11-18.6-28.2-33.2-48.8-41-10.8-4.1-22.4-6.4-34.7-6.4-53.2 0-96.3 42.3-96.3 94.4 0 1.6.1 3.2.1 4.8-33.7 11.6-57.9 43.1-57.9 80.2 0 39.2 27.1 72.2 63.9 82 7.3 1.9 14.9 3 22.8 3H563c42.6 0 77.1-33.8 77.1-75.5-.1-36.5-26.6-67.1-61.8-74z"/>
</svg>
