<svg width="49" height="49" viewBox="0 0 49 49" fill="none" xmlns="http://www.w3.org/2000/svg">
<path d="M47.4389 10.4836C47.1725 10.4197 46.9187 10.3174 46.6523 10.2535C37.8978 8.13142 29.1305 5.99654 20.3633 3.92558C19.1453 3.63155 18.2825 3.36309 18.3714 1.80348C18.4221 0.819134 17.7116 0.0521101 16.6331 0.0137589C15.5547 -0.0245922 14.971 0.665729 14.7427 1.67564C14.6665 1.99524 14.6031 2.32761 14.6285 2.63442C14.7427 3.63155 14.2225 4.07898 13.3851 4.48806C9.42651 6.4184 5.51869 8.42545 1.57281 10.3941C0.583166 10.8671 -0.254224 11.5063 0.0629692 12.708C0.367474 13.8585 1.39518 14.1142 2.47364 14.1142C5.45525 14.1014 8.43687 14.1142 11.4185 14.1142C12.0402 14.1142 12.6492 14.1142 13.3724 14.1142C12.2051 24.6863 11.0505 35.0284 9.88327 45.5238C7.75173 45.5238 5.75976 45.5238 3.7551 45.5238C3.7551 46.7766 3.7551 47.8632 3.7551 49.001C12.332 49.001 20.8328 49.001 29.3716 49.001C29.3716 47.8121 29.3716 46.7255 29.3716 45.4855C27.3162 45.4855 25.3115 45.4855 23.2181 45.4855C22.0381 34.9005 20.8962 24.5713 19.7416 14.2037C26.796 14.2037 33.5966 14.2037 40.3972 14.2037C40.3972 17.6936 40.3972 21.0941 40.3972 24.6608C38.3545 24.6608 36.4133 24.6608 34.4721 24.6608C34.4721 27.9718 34.4721 31.091 34.4721 34.2869C39.3315 34.2869 44.1147 34.2869 48.9488 34.2869C48.9488 31.0399 48.9488 27.8823 48.9488 24.5585C46.9187 24.5585 44.9775 24.5585 43.0236 24.5585C43.0236 21.0046 43.0236 17.6042 43.0236 14.1014C44.3939 14.1014 45.6753 14.1142 46.9441 14.1014C48.0352 14.0759 48.8473 13.5645 48.9868 12.4395C49.1137 11.3785 48.4539 10.7393 47.4389 10.4836ZM15.9861 23.7276C16.0241 23.5486 16.354 23.3313 16.5443 23.3313C16.7346 23.3313 17.0391 23.5742 17.0772 23.7531C17.2041 24.3668 17.2295 25.0059 17.3056 25.709C16.7727 25.709 16.3286 25.709 15.7196 25.709C15.7957 25.0315 15.8338 24.3668 15.9861 23.7276ZM15.4405 28.3297C16.1256 28.3297 16.7854 28.3297 17.5593 28.3297C17.6608 29.0712 17.775 29.8126 17.9019 30.6691C16.9123 30.6691 16.0749 30.6691 15.1106 30.6691C15.2248 29.851 15.3263 29.1223 15.4405 28.3297ZM14.9584 33.1747C16.0114 33.1747 17.0265 33.1747 18.1557 33.1747C18.2572 33.929 18.3587 34.6704 18.4855 35.5014C17.1153 35.5014 15.9226 35.5014 14.6285 35.5014C14.7427 34.696 14.8442 33.9801 14.9584 33.1747ZM14.4001 38.1093C15.8084 38.1093 17.2041 38.1093 18.752 38.1093C18.8408 38.9274 18.9296 39.6433 19.0184 40.4487C17.3183 40.4487 15.7323 40.4487 14.0829 40.4487C14.1844 39.6433 14.2859 38.9146 14.4001 38.1093ZM10.1751 10.4069C10.1497 10.3174 10.1116 10.2407 10.0863 10.1513C11.3297 9.52485 12.5731 8.88566 14.0448 8.14421C13.9053 9.03907 13.8165 9.69104 13.7023 10.3941C12.4716 10.4069 11.317 10.4069 10.1751 10.4069ZM13.5373 45.396C13.6261 44.5906 13.7023 43.8747 13.7911 43.0693C15.5674 43.0693 17.331 43.0693 19.2214 43.0693C19.3229 43.8491 19.4244 44.5778 19.5259 45.396C17.5086 45.396 15.5674 45.396 13.5373 45.396ZM30.6658 10.3941C26.9229 10.3941 23.18 10.3941 19.3864 10.3941C19.2468 9.42258 19.1326 8.52772 18.9677 7.37718C23.0404 8.34875 26.8721 9.25639 30.7038 10.164C30.6911 10.2407 30.6784 10.3174 30.6658 10.3941ZM46.4493 27.0385C46.4493 28.6365 46.4493 30.2473 46.4493 31.8452C43.1758 31.8452 40.0293 31.8452 36.7939 31.8452C36.7939 30.2473 36.7939 28.7004 36.7939 27.0385C40.0039 27.0385 43.1758 27.0385 46.4493 27.0385Z" fill="#9EA5A4"/>
</svg>
