<svg width="36" height="47" viewBox="0 0 36 47" fill="none" xmlns="http://www.w3.org/2000/svg">
<path d="M36 6.85035C35.5071 7.73369 34.7841 8.05035 33.7819 8.01702C31.728 7.95035 29.6577 8.00035 28.0475 8.00035C27.2095 9.08369 26.5359 9.86702 25.9608 10.7004C25.6814 11.117 25.4186 11.6337 25.3857 12.117C25.3035 13.317 25.3364 14.5337 25.3693 15.7504C25.3857 16.717 24.9092 17.1837 23.9891 17.1837C19.9799 17.2004 15.9544 17.2004 11.9453 17.1837C11.0251 17.1837 10.5651 16.6837 10.5979 15.717C10.6144 15.1337 10.5486 14.5337 10.6144 13.9504C10.8115 12.217 10.5486 10.717 9.02056 9.60035C8.62622 9.30035 8.49477 8.60035 8.19902 7.98369C6.81882 7.98369 5.29075 7.98369 3.77911 7.98369C0.739406 7.98369 -0.0328444 7.66702 1.7312e-05 6.40035C0.032879 5.15035 0.772267 4.85035 3.82841 4.85035C5.30718 4.85035 6.78596 4.85035 8.00185 4.85035C8.60979 4.00035 9.10271 3.31702 9.59564 2.63369C9.98998 2.08369 10.3022 1.45035 10.7787 0.983688C11.2059 0.567022 11.7974 0.050355 12.3232 0.0336883C16.0858 -0.049645 19.8485 0.000355018 23.6112 -0.0163116C24.482 -0.0163116 24.9914 0.400355 25.3528 1.20035C25.6157 1.76702 26.1251 2.21702 26.4866 2.75035C26.9302 3.38369 27.3574 4.01702 27.916 4.83369C29.6906 4.83369 31.7609 4.88369 33.8147 4.81702C34.8992 4.78369 35.6221 5.15035 36.0165 6.16702C36 6.40035 36 6.63369 36 6.85035ZM17.9097 9.70035C19.1748 9.70035 20.44 9.70035 21.7052 9.70035C22.4939 9.70035 23.2168 9.56702 23.2004 8.56702C23.2004 7.61702 22.5103 7.50035 21.7545 7.50035C19.2241 7.50035 16.6938 7.51702 14.1634 7.50035C13.4076 7.50035 12.7175 7.61702 12.7175 8.55035C12.7011 9.55035 13.424 9.70035 14.2127 9.70035C15.4615 9.70035 16.6938 9.70035 17.9097 9.70035ZM17.8768 13.9337C19.2077 13.9337 20.555 13.917 21.8859 13.9337C22.6253 13.9504 23.2004 13.7504 23.2168 12.8837C23.2332 12.0837 22.691 11.767 22.0174 11.767C19.3063 11.7337 16.6116 11.7337 13.9005 11.767C13.2269 11.767 12.7011 12.1337 12.7339 12.917C12.7668 13.717 13.2761 13.9504 13.9991 13.9337C15.2807 13.9337 16.5788 13.9337 17.8768 13.9337ZM17.9261 5.35035C19.2241 5.35035 20.5386 5.35035 21.8366 5.35035C22.5596 5.35035 23.184 5.21702 23.2004 4.33369C23.2332 3.45035 22.6253 3.21702 21.9023 3.21702C19.257 3.20035 16.6116 3.20035 13.9827 3.21702C13.2433 3.21702 12.6682 3.50035 12.7175 4.36702C12.7668 5.18369 13.3254 5.35035 14.0155 5.35035C15.33 5.33369 16.628 5.35035 17.9261 5.35035Z" fill="#9EA5A4"/>
<path d="M15.7901 37.5333C14.7221 37.5333 13.802 37.5333 12.7997 37.5333C12.734 36.4167 12.4711 35.3833 13.5227 34.5833C13.7363 34.4167 13.802 33.9333 13.802 33.5833C13.8184 30.5333 13.8677 27.4833 13.7691 24.4333C13.7527 23.85 13.3091 23.1333 12.8326 22.7333C11.7974 21.85 11.4195 20.85 11.7646 19.4667C15.8723 19.4667 19.9964 19.4667 24.2027 19.4667C24.3835 20.6 24.4656 21.6833 23.3483 22.45C22.3132 23.15 22.0831 24.1667 22.1324 25.4C22.2146 28.0833 22.1489 30.7667 22.1817 33.45C22.1817 33.8667 22.2474 34.4333 22.5103 34.65C23.5126 35.45 23.2169 36.45 23.184 37.55C22.1653 37.55 21.1959 37.55 20.1279 37.55C20.1279 38.3 20.1279 38.95 20.1279 39.65C19.7335 39.7167 19.4213 39.75 19.0599 39.8167C19.0599 41.1167 19.1584 42.3667 19.027 43.6C18.912 44.75 18.5834 45.9 18.189 47.0167C16.1845 44.8667 17.236 42.25 16.8253 39.8167C16.5459 39.7833 16.2502 39.7333 15.9051 39.6833C15.8558 38.9667 15.823 38.3167 15.7901 37.5333Z" fill="#9EA5A4"/>
</svg>
