<svg width="36" height="46" viewBox="0 0 36 46" fill="none" xmlns="http://www.w3.org/2000/svg">
<path d="M10.0183 36.6868C7.80549 35.7765 5.81283 34.9551 3.83118 34.1448C3.33576 33.945 2.84035 33.7563 2.35595 33.5565C0.0220026 32.6018 -0.319282 31.736 0.748608 29.3716C1.54127 27.5956 2.55411 27.1626 4.38164 27.9064C10.1504 30.2597 15.9192 32.6351 21.6881 34.9995C25.6514 36.6202 29.6037 38.2408 33.567 39.8615C35.4605 40.6385 35.9119 41.6375 35.1853 43.4025C34.2275 45.7447 33.2807 46.2442 31.3321 45.445C27.2587 43.7688 23.1853 42.1149 19.1339 40.3943C18.2862 40.028 17.5596 40.0058 16.7009 40.3721C12.6495 42.0927 8.57613 43.7466 4.50274 45.4339C3.5009 45.8446 2.33393 46.1443 1.6954 45.1897C0.99081 44.1795 0.539434 42.8697 0.396315 41.6375C0.341269 41.1713 1.3431 40.361 2.01466 40.0613C4.56879 38.8847 7.17797 37.8634 10.0183 36.6868Z" fill="#9EA5A4"/>
<path d="M13.9046 17.1279C11.1083 20.2027 10.5909 23.5661 11.6147 27.4402C11.2844 27.1515 10.9101 26.8851 10.6129 26.5521C7.56335 23.1221 6.72665 17.139 10.6789 13.2539C11.5267 12.4213 12.4074 11.6221 13.2661 10.8118C15.0716 9.09122 16.6789 7.19305 16.9542 4.59556C17.0973 3.30792 16.8111 1.96477 16.723 0.721527C20.9395 2.36438 24.3083 9.00242 20.9285 13.8977C20.0257 15.1964 19.6845 16.6062 20.6202 18.0381C21.4459 19.2925 22.6569 19.7587 24.1212 19.5367C25.4643 19.3258 26.2679 18.3711 26.9615 16.2177C28.3707 17.8716 28.1065 21.8123 26.6092 24.543C24.9358 27.6067 21.3909 29.7712 17.978 29.6158C17.6478 27.3958 16.3817 25.5975 15.0936 23.7992C14.0147 22.3007 13.8386 20.5357 13.8936 18.7375C13.9156 18.2712 13.9046 17.805 13.9046 17.1279Z" fill="#9EA5A4"/>
<path d="M20.8844 32.291C24.6936 30.7148 28.2275 29.2162 31.7835 27.7954C33.4679 27.1182 34.4587 27.8176 35.3395 30.1154C35.945 31.6916 35.5376 32.6906 33.9303 33.3456C32.2018 34.0671 30.4624 35.2659 28.7119 35.277C27.0165 35.2992 25.3101 34.0893 23.6037 33.4122C22.778 33.0792 21.9523 32.735 20.8844 32.291Z" fill="#9EA5A4"/>
</svg>
