<svg xmlns="http://www.w3.org/2000/svg" enable-background="new 0 0 352 512" viewBox="0 0 352 512">
    <path d="M204.6 42.2c-8.1-25.1-49.2-27.8-58.3.8C100.5 187.9 0 235.7 0 325.7 0 417 78.8 489.6 176 489.6S352 417 352 325.7c0-90.3-100.9-139.1-147.4-283.5zM91 284.6c0-15.3 12.4-27.7 27.7-27.7s27.7 12.4 27.7 27.7c0 15.3-12.4 27.7-27.7 27.7S91 299.9 91 284.6zM132.7 399c-3.2 3.9-9 4.5-12.9 1.3l-4.3-3.5c-3.9-3.2-4.5-9-1.3-12.9l102.3-125.1c3.2-3.9 9-4.5 12.9-1.3l4.3 3.5c3.9 3.2 4.5 9 1.3 12.9L132.7 399zm99.8.3c-15.3 0-27.7-12.4-27.7-27.7 0-15.3 12.4-27.7 27.7-27.7s27.7 12.4 27.7 27.7c0 15.4-12.4 27.7-27.7 27.7z"/>
</svg>
