<svg width="46" height="44" viewBox="0 0 46 44" fill="none" xmlns="http://www.w3.org/2000/svg">
<path d="M0 19.0276C0.779828 17.6514 2.28026 17.8623 3.59313 17.3701C3.39571 16.5966 3.18841 15.8432 3.01073 15.0797C2.77382 14.0651 3.16867 13.2815 3.98798 13.0806C4.88627 12.8495 5.5279 13.2514 5.87339 14.266C5.9721 14.5372 6.09056 14.8285 6.1103 15.1098C6.30772 17.6614 8.22275 18.5053 9.97983 19.319C9.97983 16.9984 9.96996 14.6578 9.97983 12.3171C10.0094 7.05319 12.497 3.38653 17.1365 1.2468C22.3288 -1.14407 28.9524 0.0513662 32.733 3.93904C34.8356 6.09886 35.9215 8.71073 35.9609 11.7445C36.0004 14.276 35.9708 16.7975 35.9708 19.3591C36.8494 18.8468 37.8463 18.3043 38.8137 17.6916C39.0506 17.5409 39.1987 17.1893 39.2974 16.8979C39.5639 16.1043 39.7614 15.2806 40.0081 14.4769C40.3833 13.2413 41.094 12.7692 42.0515 13.0906C42.8906 13.3619 43.2064 14.2057 42.9004 15.3811C42.7326 16.0139 42.5451 16.6368 42.3279 17.3902C43.1077 17.5811 43.8283 17.7619 44.5489 17.9326C45.4373 18.1436 45.9605 18.7263 45.8914 19.6404C45.8223 20.5747 44.8056 21.2377 43.8481 20.866C41.5382 19.9619 39.5738 20.4842 37.639 21.9007C36.415 22.7948 35.0232 23.4477 33.73 24.2514C33.4635 24.4121 33.1378 24.7838 33.1378 25.045C33.197 27.2751 32.1013 28.8824 30.5318 30.2486C30.4232 30.339 30.3442 30.4596 30.1961 30.6404C33.6116 32.6395 36.9777 34.6185 40.3536 36.5573C40.6202 36.708 41.0545 36.6578 41.3901 36.5874C42.1996 36.4368 42.9991 36.1856 43.8185 36.045C44.9043 35.8541 45.7335 36.3664 45.921 37.2706C46.0691 37.9738 45.4176 38.7874 44.4601 39.0285C43.7987 39.1993 43.1373 39.3299 42.4266 39.4906C42.3772 41.0276 44.0257 42.6751 42.0515 43.961C41.7652 43.961 41.4691 43.961 41.1828 43.961C40.7584 43.3582 40.2648 42.7957 39.9292 42.1527C39.6627 41.6505 39.5639 41.0477 39.4554 40.4751C39.3073 39.6916 38.8927 39.2194 38.2017 38.8276C34.806 36.8888 31.4399 34.9199 28.0837 32.9208C27.4618 32.5491 26.9682 32.4587 26.297 32.8002C24.0957 33.9354 21.8549 33.9253 19.6536 32.7902C18.9824 32.4386 18.479 32.5591 17.867 32.9208C14.7575 34.7792 11.6678 36.6578 8.48927 38.3856C7.23562 39.0687 6.51502 39.9226 6.2485 41.329C6.05107 42.3537 5.87339 43.4587 4.75794 43.971C4.47167 43.971 4.17554 43.971 3.88927 43.971C1.91502 42.6852 3.55365 41.0477 3.52403 39.5007C2.83305 39.35 2.12232 39.3098 1.53004 39.0285C0.967382 38.7272 0.503433 38.1948 0 37.7728C0 37.5518 0 37.3308 0 37.1098C0.602146 36.0048 1.50043 35.7537 2.64549 36.1354C3.11931 36.2961 3.65236 36.2961 4.11631 36.4769C4.93562 36.7884 5.61674 36.5874 6.34721 36.1454C8.95322 34.5783 11.5888 33.0715 14.2146 31.5345C14.7279 31.2331 15.2215 30.9217 15.9519 30.4797C15.6459 30.319 15.4979 30.2788 15.3794 30.1783C13.8296 28.8422 12.7734 27.2651 12.8129 25.0751C12.8129 24.7838 12.4575 24.382 12.1712 24.2011C10.6906 23.287 9.11116 22.5235 7.69957 21.529C6.12017 20.4139 4.54077 19.9719 2.70472 20.7555C1.59914 21.2276 0.681116 20.8961 0 19.9016C0 19.6103 0 19.3189 0 19.0276ZM26.0107 24.7436C26.0107 24.2011 26.0107 23.7993 26.0107 23.3874C26.0107 21.7098 26.2575 21.3984 27.8961 20.9966C28.8043 20.7756 29.7124 20.5445 30.6206 20.3235C32.2494 19.9217 32.9305 19.0678 32.9502 17.3701C32.97 15.5317 32.97 13.6934 32.9502 11.855C32.9305 9.62488 32.1704 7.68607 30.6107 6.11895C27.5506 3.05502 23.8094 2.54269 19.8609 3.53721C16.2579 4.44132 13.6815 6.7016 13.1682 10.5993C12.8425 13.0505 13.0103 15.582 13.0794 18.0733C13.109 19.0979 13.7704 19.8313 14.7871 20.1126C15.8927 20.424 17.0082 20.7253 18.1236 21.0167C19.5549 21.3884 19.9202 21.8304 19.93 23.3071C19.93 23.7692 19.93 24.2313 19.93 24.7537C22.0227 24.7436 23.9575 24.7436 26.0107 24.7436ZM30.0086 23.7591C29.8901 23.7089 29.7618 23.6587 29.6433 23.6084C29.5249 23.9299 29.3077 24.2514 29.2978 24.5728C29.1794 26.7126 28.2712 27.7473 26.1687 27.8276C24.1549 27.908 22.1313 27.908 20.1176 27.8276C17.9459 27.7372 16.8403 26.592 16.5837 24.4623C16.5442 24.171 16.3369 23.9098 16.2086 23.6285C16.0506 23.6788 15.8927 23.739 15.7348 23.7893C15.8927 24.7336 15.7742 25.8989 16.2678 26.592C17.8275 28.7619 20.0584 30.108 22.6644 30.4797C24.8953 30.7911 26.5734 29.2742 28.3206 28.119C29.9099 27.0742 30.4232 25.6075 30.0086 23.7591Z" fill="#9EA5A4"/>
<path d="M31.0155 16.5854C30.9661 19.1772 29.4163 20.1315 27.1262 18.9763C26.0107 18.4137 25.0137 17.7105 24.4807 16.505C24.0167 15.4603 24.2635 14.516 25.1421 13.8931C26.3069 13.0794 28.9425 13.0895 29.9296 14.1041C30.5318 14.7269 30.8476 15.6411 31.282 16.4247C31.203 16.4749 31.1142 16.5251 31.0155 16.5854ZM27.294 14.6767C26.8004 14.9078 26.3069 15.1388 25.8232 15.3699C26.0798 15.8621 26.2378 16.4548 26.6129 16.8164C27.0966 17.2685 27.7283 17.6 28.3502 17.8612C28.9721 18.1324 29.367 17.831 29.4854 17.1379C29.7717 15.5406 29.1794 14.8877 27.294 14.6767Z" fill="#9EA5A4"/>
<path d="M19.2094 13.3205C20.1768 13.3708 21.3317 13.5817 21.8253 14.7772C22.2991 15.9324 21.7562 16.9872 20.8777 17.7005C20.0485 18.3735 19.1008 18.9361 18.1236 19.358C17.3734 19.6895 16.5343 19.5087 15.9519 18.8155C15.1721 17.8813 15.024 16.7562 15.2905 15.611C15.6459 14.084 16.8798 13.3607 19.2094 13.3205ZM18.854 14.7973C18.3901 14.8977 17.8965 14.9078 17.4918 15.0986C16.5442 15.5406 16.554 16.4247 16.8206 17.2484C16.9193 17.5397 17.551 17.9717 17.6892 17.8913C18.5974 17.3589 19.4858 16.7662 20.2755 16.063C20.6802 15.7014 20.5223 15.169 19.9103 14.9982C19.5746 14.8877 19.2193 14.8575 18.854 14.7973Z" fill="#9EA5A4"/>
<path d="M22.9704 22.5626C21.0159 22.5626 20.552 22.0402 20.9666 20.1014C21.1541 19.2174 21.4108 18.3132 21.8352 17.5397C22.4275 16.4548 23.6022 16.4448 24.1254 17.5598C24.6288 18.6548 24.9546 19.8904 25.0928 21.1059C25.231 22.221 24.5992 22.5626 22.9704 22.5626ZM23.1481 18.695C23.0395 18.6849 22.931 18.6849 22.8224 18.6749C22.6447 19.4183 22.467 20.1516 22.2696 20.9653C22.8125 20.9653 23.1975 20.9653 23.7108 20.9653C23.5035 20.1516 23.3258 19.4183 23.1481 18.695Z" fill="#9EA5A4"/>
</svg>
