<svg xmlns="http://www.w3.org/2000/svg" xmlns:xlink="http://www.w3.org/1999/xlink" viewBox="0 0 462.52 208.36"><defs><style>.cls-1{fill:#a09e9a;}.cls-2{fill:#050505;opacity:0.22;}.cls-3{fill:url(#linear-gradient);}.cls-4{fill:url(#linear-gradient-2);}.cls-5{fill:#231815;}.cls-6{fill:#444342;}.cls-7{fill:url(#linear-gradient-3);}.cls-8{fill:url(#linear-gradient-4);}.cls-9{fill:url(#linear-gradient-5);}.cls-10{fill:url(#linear-gradient-6);}.cls-11{fill:url(#linear-gradient-7);}.cls-12{fill:url(#linear-gradient-8);}.cls-13{fill:url(#linear-gradient-9);}.cls-14{fill:url(#linear-gradient-10);}.cls-15{fill:url(#linear-gradient-11);}.cls-16{fill:url(#linear-gradient-12);}.cls-17{fill:#898989;}</style><linearGradient id="linear-gradient" x1="160.14" y1="142.01" x2="194.56" y2="142.01" gradientUnits="userSpaceOnUse"><stop offset="0" stop-color="#008ec2"/><stop offset="1" stop-color="#80cde8"/></linearGradient><linearGradient id="linear-gradient-2" x1="198.96" y1="141.88" x2="227.09" y2="141.88" gradientUnits="userSpaceOnUse"><stop offset="0" stop-color="#8fc31f"/><stop offset="1" stop-color="#cfdb00"/></linearGradient><linearGradient id="linear-gradient-3" x1="26.32" y1="135.07" x2="150.44" y2="135.07" xlink:href="#linear-gradient-2"/><linearGradient id="linear-gradient-4" x1="41.08" y1="267.38" x2="200.97" y2="15.87" gradientUnits="userSpaceOnUse"><stop offset="0.17" stop-color="#f0f0f0"/><stop offset="0.34" stop-color="#ececec"/><stop offset="0.51" stop-color="#dfdfdf"/><stop offset="0.69" stop-color="#cacaca"/><stop offset="0.88" stop-color="#adadad"/></linearGradient><linearGradient id="linear-gradient-5" x1="17.62" y1="252.48" x2="177.52" y2="0.96" xlink:href="#linear-gradient-4"/><linearGradient id="linear-gradient-6" x1="24.86" y1="101.35" x2="106.93" y2="101.35" xlink:href="#linear-gradient-2"/><linearGradient id="linear-gradient-7" x1="24.86" y1="154.04" x2="61.6" y2="154.04" gradientUnits="userSpaceOnUse"><stop offset="0" stop-color="#8fc31f"/><stop offset="1" stop-color="#1c5e28"/></linearGradient><linearGradient id="linear-gradient-8" x1="71.96" y1="73.3" x2="196.08" y2="73.3" xlink:href="#linear-gradient"/><linearGradient id="linear-gradient-9" x1="1489.12" y1="2081.34" x2="1649.02" y2="1829.83" gradientTransform="translate(1670.44 2022.33) rotate(180)" xlink:href="#linear-gradient-4"/><linearGradient id="linear-gradient-10" x1="1465.66" y1="2066.43" x2="1625.56" y2="1814.92" gradientTransform="translate(1670.44 2022.33) rotate(180)" xlink:href="#linear-gradient-4"/><linearGradient id="linear-gradient-11" x1="115.47" y1="107.01" x2="197.54" y2="107.01" xlink:href="#linear-gradient"/><linearGradient id="linear-gradient-12" x1="160.81" y1="54.33" x2="197.54" y2="54.33" gradientUnits="userSpaceOnUse"><stop offset="0" stop-color="#008ec2"/><stop offset="1" stop-color="#00354d"/></linearGradient></defs><title>logo_1</title><g id="레이어_2" data-name="레이어 2"><g id="Layer_1" data-name="Layer 1"><path class="cls-1" d="M350.3,167.27h11.85v2.21H357.5V181.9h-2.56V169.48H350.3Z"/><path class="cls-1" d="M365.35,177.2a3.57,3.57,0,0,0,.7,2.2,2.49,2.49,0,0,0,2.15.94,2.85,2.85,0,0,0,1.65-.44,2.64,2.64,0,0,0,.93-1.32H373a4.26,4.26,0,0,1-1.72,2.68,5.23,5.23,0,0,1-3.07.93,4.82,4.82,0,0,1-3.84-1.57,6.42,6.42,0,0,1,0-7.93,5,5,0,0,1,7.63.23,5.83,5.83,0,0,1,1.11,4.28Zm5.45-1.53a3.28,3.28,0,0,0-.77-2,2.32,2.32,0,0,0-1.89-.85,2.6,2.6,0,0,0-2,.81,2.92,2.92,0,0,0-.81,2Z"/><path class="cls-1" d="M382.07,174.85a2.2,2.2,0,0,0-.8-1.48,2.53,2.53,0,0,0-1.62-.51,3.3,3.3,0,0,0-1.9.72c-.67.48-1,1.52-1,3.13a5,5,0,0,0,.65,2.47,2.26,2.26,0,0,0,2.16,1.16,2.29,2.29,0,0,0,1.69-.65,2.92,2.92,0,0,0,.83-1.77h2.34a5.16,5.16,0,0,1-1.57,3.16,5.42,5.42,0,0,1-7.1-.46,5.81,5.81,0,0,1-1.33-3.91,6.32,6.32,0,0,1,1.31-4,4.7,4.7,0,0,1,3.92-1.66,5.58,5.58,0,0,1,3.22,1,3.67,3.67,0,0,1,1.55,2.89Z"/><path class="cls-1" d="M386.31,167.27h2.34v5.43h0a3.46,3.46,0,0,1,1.28-1.2,3.81,3.81,0,0,1,1.9-.49,4,4,0,0,1,2.74.92,3.45,3.45,0,0,1,1,2.69v7.28h-2.34v-6.66a2.62,2.62,0,0,0-.52-1.82,2,2,0,0,0-1.55-.56,2.32,2.32,0,0,0-1.86.81,2.91,2.91,0,0,0-.7,2v6.25h-2.34Z"/><path class="cls-1" d="M398.08,171.3h2.21v1.56l0,0a3.91,3.91,0,0,1,1.39-1.38,3.76,3.76,0,0,1,1.91-.51,3.94,3.94,0,0,1,2.73.92,3.42,3.42,0,0,1,1,2.69v7.28h-2.34v-6.66a2.62,2.62,0,0,0-.52-1.82,2,2,0,0,0-1.55-.56,2.35,2.35,0,0,0-1.87.81,3,3,0,0,0-.69,2v6.25h-2.34Z"/><path class="cls-1" d="M414.7,182.19a5,5,0,0,1-3.94-1.58,6.41,6.41,0,0,1,0-8,5.73,5.73,0,0,1,7.9,0,6.48,6.48,0,0,1,0,8A5,5,0,0,1,414.7,182.19Zm0-1.85a2.5,2.5,0,0,0,2.3-1.19,4.89,4.89,0,0,0,0-5.11,2.81,2.81,0,0,0-4.58,0,4.84,4.84,0,0,0,0,5.11A2.48,2.48,0,0,0,414.7,180.34Z"/><path class="cls-1" d="M422.06,167.27h2.34V181.9h-2.34Z"/><path class="cls-1" d="M431.8,182.19a5,5,0,0,1-3.95-1.58,6.44,6.44,0,0,1,0-8,5.73,5.73,0,0,1,7.9,0,6.44,6.44,0,0,1,0,8A5,5,0,0,1,431.8,182.19Zm0-1.85a2.48,2.48,0,0,0,2.29-1.19,4.89,4.89,0,0,0,0-5.11,2.81,2.81,0,0,0-4.58,0,4.84,4.84,0,0,0,0,5.11A2.5,2.5,0,0,0,431.8,180.34Z"/><path class="cls-1" d="M448.89,181.35a4.46,4.46,0,0,1-1.36,3.56,5.63,5.63,0,0,1-3.85,1.19,7,7,0,0,1-3.08-.72A2.92,2.92,0,0,1,439,182.8h2.33a1.61,1.61,0,0,0,1,1.28,4.26,4.26,0,0,0,1.6.28,2.71,2.71,0,0,0,2.07-.7,2.84,2.84,0,0,0,.65-2V180h0a3.61,3.61,0,0,1-3.18,1.86,4.05,4.05,0,0,1-3.63-1.65,6.79,6.79,0,0,1-1.12-3.92,5.77,5.77,0,0,1,1.27-3.72,4.27,4.27,0,0,1,3.53-1.6,4.08,4.08,0,0,1,1.84.43,2.85,2.85,0,0,1,1.29,1.32h0V171.3h2.34Zm-5.19-1.29a2.34,2.34,0,0,0,2.21-1.17,5.13,5.13,0,0,0,.64-2.52,4.53,4.53,0,0,0-.66-2.44,2.4,2.4,0,0,0-2.19-1.07,2.23,2.23,0,0,0-2.17,1.18,5.32,5.32,0,0,0-.61,2.51,4.57,4.57,0,0,0,.66,2.41A2.31,2.31,0,0,0,443.7,180.06Z"/><path class="cls-1" d="M450.08,171.3h2.56l2.77,7.91h0l2.68-7.91h2.44l-4.12,11.17a13.64,13.64,0,0,1-1.23,2.54,2.77,2.77,0,0,1-2.52,1.09q-.4,0-.81,0t-.81-.09v-2l.57.09a2.47,2.47,0,0,0,.54.05,1.35,1.35,0,0,0,1.12-.39,3.4,3.4,0,0,0,.52-1.08l.26-.82Z"/><path class="cls-2" d="M198,151.68a6.33,6.33,0,0,1-.66,2.53,6.56,6.56,0,0,1-2.17,2.56,6.22,6.22,0,0,1-3.8,1.1,7.38,7.38,0,0,1-3.51-.64,8.76,8.76,0,0,1-2.44-2.4l-12.05-14.54a4,4,0,0,0-.91-1,1.48,1.48,0,0,0-.84-.22,1.19,1.19,0,0,0-.68.26.8.8,0,0,0-.34.7v17h-7V137.31a4.38,4.38,0,0,1,.34-1.41,6.77,6.77,0,0,1,1.12-1.85,6.21,6.21,0,0,1,2.06-1.63,6.64,6.64,0,0,1,3.11-.67,7,7,0,0,1,3.61.78,8.53,8.53,0,0,1,2.1,1.67l12.14,14.28a3.47,3.47,0,0,0,1,1,1.94,1.94,0,0,0,.93.22c.42,0,.67-.13.77-.37a2.92,2.92,0,0,0,.15-1v-16H198Z"/><path class="cls-2" d="M230.53,157.1H210.11a6.81,6.81,0,0,1-3.9-1.21,9.2,9.2,0,0,1-2.79-3,6.84,6.84,0,0,1-1-3.36V139.16a5.2,5.2,0,0,1,1.27-3.22,10.79,10.79,0,0,1,3-2.64,6.29,6.29,0,0,1,3-1H230V138H211.94a2.46,2.46,0,0,0-1.26.34,2.83,2.83,0,0,0-1,.89,1.94,1.94,0,0,0-.39,1.18v1.45h20.56v5.61H209.43v2a1.55,1.55,0,0,0,.86,1.28,3,3,0,0,0,1.65.56h18.59Z"/><path class="cls-2" d="M270.42,157.06h-9.94l-9-9.26-9,9.3H232.42l12.3-12.35-10.84-12.44h8.71l8.73,9.36,8.92-9.36h9.24l-11.26,12.55Z"/><path class="cls-2" d="M291.29,157.06h-7V138.21H271.4v-6h19.89Zm21.79-18.8H300.22V157.1h-7V132.27h19.88Z"/><path class="cls-2" d="M357,157.1H337.86a9.3,9.3,0,0,1-5-1.23,7.8,7.8,0,0,1-2.89-2.94,6.93,6.93,0,0,1-.9-3.21V139.2a5.62,5.62,0,0,1,1.16-3.31,9.68,9.68,0,0,1,2.77-2.61,5.43,5.43,0,0,1,2.7-1H356.9v5.82H340.34a3.54,3.54,0,0,0-1.87.57,5,5,0,0,0-1.51,1.42,2.88,2.88,0,0,0-.59,1.59v5.82a3.25,3.25,0,0,0,.45,1.62,3.6,3.6,0,0,0,1.3,1.33A3.48,3.48,0,0,0,340,151h17Z"/><path class="cls-2" d="M394.25,149.55a6.7,6.7,0,0,1-1.15,3.79,9,9,0,0,1-2.8,2.74,5.8,5.8,0,0,1-2.92,1H368.3a7.3,7.3,0,0,1-4.17-1.23,8.52,8.52,0,0,1-2.79-3.07,7.36,7.36,0,0,1-1-3.51V140a6.74,6.74,0,0,1,.66-2.92,9,9,0,0,1,1.76-2.47,8.94,8.94,0,0,1,2.38-1.69,5.65,5.65,0,0,1,2.47-.63h18.78a7.93,7.93,0,0,1,3.12.84,8.66,8.66,0,0,1,3.29,2.69,7.73,7.73,0,0,1,1.43,4.82Zm-7.13-2.34v-5.09a3.81,3.81,0,0,0-1.09-2.73,4.63,4.63,0,0,0-3.44-1.13h-11a3.8,3.8,0,0,0-1.58.48,5.9,5.9,0,0,0-1.65,1.28,2.58,2.58,0,0,0-.69,1.7v4.86a4.85,4.85,0,0,0,.93,2.93,3.21,3.21,0,0,0,2.72,1.2h12.24a4,4,0,0,0,2.52-.81A3.19,3.19,0,0,0,387.12,147.21Z"/><path class="cls-2" d="M432,157.1h-7.34a59.36,59.36,0,0,0-1.59-7c-.51-1.61-1.21-2.41-2.1-2.41h-16.2v9.42h-7.13V142h22.12a2.68,2.68,0,0,0,1.64-.55,1.67,1.67,0,0,0,.73-1.41,1.82,1.82,0,0,0-.24-.81,2.14,2.14,0,0,0-2-1.11H397.61v-5.82h27.16a4.26,4.26,0,0,1,3.55,1.38,5,5,0,0,1,1.09,3.21v5a3.81,3.81,0,0,1-.55,2.29,7,7,0,0,1-2.22,1.66,13.29,13.29,0,0,1,1.54.92,5,5,0,0,1,1.14,1.39,13.9,13.9,0,0,1,1.33,3.18A50.06,50.06,0,0,1,432,157.1Z"/><path class="cls-2" d="M462.52,157.1H442.09a6.83,6.83,0,0,1-3.9-1.21,9.2,9.2,0,0,1-2.79-3,6.84,6.84,0,0,1-1-3.36V139.16a5.2,5.2,0,0,1,1.27-3.22,10.93,10.93,0,0,1,3-2.64,6.29,6.29,0,0,1,3-1H462V138H443.93a2.49,2.49,0,0,0-1.27.34,2.92,2.92,0,0,0-1,.89,2,2,0,0,0-.39,1.18v1.45h20.57v5.61H441.42v2a1.55,1.55,0,0,0,.86,1.28,3,3,0,0,0,1.65.56h18.59Z"/><path class="cls-3" d="M194.56,148.88a6.33,6.33,0,0,1-.66,2.53,6.63,6.63,0,0,1-2.16,2.57,6.31,6.31,0,0,1-3.81,1.09,7.27,7.27,0,0,1-3.51-.65A8.69,8.69,0,0,1,182,152l-12-14.54a4.51,4.51,0,0,0-.9-1,1.59,1.59,0,0,0-.84-.22,1.21,1.21,0,0,0-.68.25.82.82,0,0,0-.34.71v17h-7V134.51a4.37,4.37,0,0,1,.33-1.41,6.87,6.87,0,0,1,1.12-1.85,6.36,6.36,0,0,1,2.07-1.63,6.74,6.74,0,0,1,3.11-.67,7.2,7.2,0,0,1,3.61.77,8.75,8.75,0,0,1,2.1,1.68l12.13,14.28a3.61,3.61,0,0,0,1,1,2,2,0,0,0,.94.22c.41,0,.67-.13.77-.38a2.86,2.86,0,0,0,.14-1v-16h7.13Z"/><path class="cls-4" d="M227.09,154.29H206.66a6.76,6.76,0,0,1-3.9-1.21,9,9,0,0,1-2.78-3,6.7,6.7,0,0,1-1-3.35V136.36a5.2,5.2,0,0,1,1.27-3.22,10.93,10.93,0,0,1,3-2.64,6.29,6.29,0,0,1,3-1h20.28v5.68H208.5a2.49,2.49,0,0,0-1.27.34,2.92,2.92,0,0,0-1,.89,2,2,0,0,0-.39,1.18V139h20.56v5.61H206v2a1.58,1.58,0,0,0,.85,1.28,3.09,3.09,0,0,0,1.66.55h18.59Z"/><path class="cls-5" d="M267,154.26H257L248,145l-9,9.29H229L241.28,142l-10.85-12.44h8.72l8.72,9.36,8.92-9.36H266l-11.27,12.55Z"/><path class="cls-5" d="M287.85,154.26h-7V135.41H268v-6h19.89Zm21.79-18.8H296.78v18.83h-7V129.47h19.89Z"/><path class="cls-6" d="M353.59,154.29H334.41a9.26,9.26,0,0,1-5-1.22,7.76,7.76,0,0,1-2.9-2.94,6.88,6.88,0,0,1-.89-3.21V136.4a5.61,5.61,0,0,1,1.15-3.31,9.94,9.94,0,0,1,2.77-2.61,5.5,5.5,0,0,1,2.7-1h21.17v5.82H336.89a3.51,3.51,0,0,0-1.86.57,5.17,5.17,0,0,0-1.52,1.42,2.88,2.88,0,0,0-.59,1.59v5.82a3.36,3.36,0,0,0,.45,1.62,3.68,3.68,0,0,0,1.3,1.33,3.47,3.47,0,0,0,1.87.52h17Z"/><path class="cls-6" d="M390.81,146.75a6.71,6.71,0,0,1-1.16,3.79,8.91,8.91,0,0,1-2.8,2.74,5.74,5.74,0,0,1-2.92,1H364.86a7.25,7.25,0,0,1-4.17-1.22,8.64,8.64,0,0,1-2.8-3.07,7.48,7.48,0,0,1-1-3.51v-9.32a6.74,6.74,0,0,1,.67-2.91,8.95,8.95,0,0,1,4.14-4.16,5.62,5.62,0,0,1,2.47-.63H383a8,8,0,0,1,3.12.83,8.71,8.71,0,0,1,3.29,2.7,7.68,7.68,0,0,1,1.44,4.82Zm-7.14-2.34v-5.09a3.77,3.77,0,0,0-1.09-2.74,4.63,4.63,0,0,0-3.44-1.12h-11a3.61,3.61,0,0,0-1.58.48,5.9,5.9,0,0,0-1.65,1.28,2.54,2.54,0,0,0-.7,1.7v4.86a4.85,4.85,0,0,0,.94,2.94,3.21,3.21,0,0,0,2.71,1.19h12.24a4,4,0,0,0,2.53-.81A3.19,3.19,0,0,0,383.67,144.41Z"/><path class="cls-6" d="M428.53,154.29h-7.34a61.31,61.31,0,0,0-1.6-7c-.51-1.61-1.2-2.41-2.09-2.41H401.3v9.41h-7.13V139.17h22.12a2.68,2.68,0,0,0,1.64-.55,1.69,1.69,0,0,0,.73-1.41,1.78,1.78,0,0,0-.25-.8,2.11,2.11,0,0,0-.73-.79,2.23,2.23,0,0,0-1.26-.33H394.17v-5.82h27.15a4.26,4.26,0,0,1,3.55,1.38,5,5,0,0,1,1.09,3.21v5a3.94,3.94,0,0,1-.54,2.3,7.2,7.2,0,0,1-2.23,1.65,15.34,15.34,0,0,1,1.55.92,5.38,5.38,0,0,1,1.14,1.39,14.37,14.37,0,0,1,1.33,3.18A55,55,0,0,1,428.53,154.29Z"/><path class="cls-6" d="M459.07,154.29H438.65a6.74,6.74,0,0,1-3.9-1.21,9,9,0,0,1-2.79-3,6.78,6.78,0,0,1-1-3.35V136.36a5.2,5.2,0,0,1,1.27-3.22,10.65,10.65,0,0,1,3-2.64,6.29,6.29,0,0,1,3-1h20.29v5.68H440.48a2.52,2.52,0,0,0-1.27.34,2.92,2.92,0,0,0-1,.89,2,2,0,0,0-.38,1.18V139H458.4v5.61H438v2a1.55,1.55,0,0,0,.85,1.28,3.06,3.06,0,0,0,1.65.55h18.59Z"/><polygon class="cls-7" points="150.44 127.39 62.29 162.56 26.32 140.22 113.56 107.58 150.44 127.39"/><polygon class="cls-8" points="150.44 168.84 61.06 208.26 61.06 162.47 150.44 127.39 150.44 168.84"/><polygon class="cls-9" points="61.62 119.59 61.62 197.33 106.63 176.15 106.63 102.43 61.62 119.59"/><polygon class="cls-10" points="106.94 102.22 61.72 119.37 24.86 99.71 70.08 83.33 106.94 102.22"/><polygon class="cls-11" points="61.6 208.37 24.86 187.71 24.86 99.71 61.6 119.45 61.6 208.37"/><polygon class="cls-12" points="71.96 80.98 160.12 45.82 196.08 68.14 108.84 100.79 71.96 80.98"/><polygon class="cls-13" points="71.96 39.52 161.34 0.09 161.34 45.9 71.96 80.98 71.96 39.52"/><polygon class="cls-14" points="160.78 88.78 160.78 11.04 115.77 32.22 115.77 105.94 160.78 88.78"/><polygon class="cls-15" points="115.47 106.14 160.69 88.99 197.54 108.65 152.32 125.03 115.47 106.14"/><polygon class="cls-16" points="160.81 0 197.54 20.67 197.54 108.65 160.81 88.92 160.81 0"/><path class="cls-17" d="M19.79,110.47c.48.45,1,.87,1.46,1.29a61.93,61.93,0,0,1,84.25-90.7c-.45-.47-.9-.93-1.38-1.37a62,62,0,1,0-84.33,90.78Z"/></g></g></svg>