<svg width="64" height="47" viewBox="0 0 64 47" fill="none" xmlns="http://www.w3.org/2000/svg">
<path d="M44.5488 16.8158C44.5488 14.011 44.4935 11.5058 44.5626 8.987C44.6316 6.33202 46.6195 4.45311 49.4772 4.33057C49.3805 5.66487 50.3055 7.17616 48.4142 8.10201C48.0967 8.25177 47.9172 8.95977 47.9172 9.40907C47.862 11.8054 47.8896 14.2017 47.8896 16.8294C50.8991 16.8294 53.8257 16.8294 56.7386 16.8294C60.535 16.8294 61.5427 17.8369 61.5565 21.5948C61.5565 23.1741 61.5565 24.7671 61.5565 26.3465C61.5565 28.7292 60.8525 29.2874 58.5194 28.8517C54.5022 28.1029 51.0509 29.1785 48.2485 32.0922C47.4616 32.9091 46.7438 33.8894 46.3296 34.9241C45.9017 36.0134 45.2804 36.2176 44.2174 36.204C39.786 36.1495 35.3546 36.1767 30.799 36.1767C30.7438 36.6805 30.6609 37.089 30.6471 37.511C30.6195 38.6139 30.2744 39.5261 28.9629 39.4716C27.7067 39.4308 27.3477 38.5186 27.2925 37.4294C27.2373 36.3946 27.3063 35.3326 27.0992 34.3251C25.0837 24.6991 13.9431 20.3285 5.63246 25.8972C4.76274 26.4827 3.97586 27.177 3.17517 27.8442C2.34687 28.5386 1.47715 29.0423 0.552216 28.0893C-0.400329 27.1226 1.62725e-05 26.1695 0.855927 25.3798C1.58759 24.7127 2.34687 24.0455 3.18897 23.5417C4.04488 23.0244 4.43142 22.4525 4.29337 21.4314C4.05869 19.6069 4.26576 17.9595 6.33651 17.0881C6.68164 16.9383 6.87491 16.0806 6.88871 15.5496C6.94393 12.1049 6.88871 8.66023 6.91632 5.21556C6.94393 2.08404 8.91805 0.0825962 12.0794 0.0417504C15.6825 0.000904465 19.2856 0.0825962 22.9025 0.0145198C25.3046 -0.0399414 26.8922 0.981206 27.9275 3.05073C30.0121 7.25786 32.1657 11.4514 34.2226 15.6721C34.6506 16.5435 35.1199 16.8566 36.1001 16.843C38.8473 16.7749 41.6083 16.8158 44.5488 16.8158ZM29.0596 16.7341C27.6514 13.9157 26.0915 11.3288 25.0561 8.55131C23.9793 5.66487 22.3365 4.50757 19.1752 4.92964C16.8007 5.24279 14.3572 4.99772 11.969 4.99772C11.969 9.06869 11.969 12.8674 11.969 16.7477C17.6566 16.7341 23.22 16.7341 29.0596 16.7341Z" fill="#9EA5A4"/>
<path d="M13.6531 46.6732C7.97922 46.6869 3.28552 42.044 3.32693 36.4345C3.36835 31.0293 8.07585 26.509 13.6255 26.5362C19.2303 26.5635 23.855 31.0565 23.855 36.489C23.855 42.0577 19.2441 46.6596 13.6531 46.6732ZM13.5702 42.4661C16.9525 42.4661 19.5754 39.9201 19.5892 36.6115C19.603 33.3575 16.8973 30.6617 13.6117 30.6344C10.3675 30.6208 7.59268 33.3439 7.59268 36.5843C7.59268 39.8928 10.2018 42.4661 13.5702 42.4661Z" fill="#9EA5A4"/>
<path d="M48.8145 39.498C48.8283 35.3317 52.2105 31.9415 56.352 31.9823C60.5211 32.0096 63.9724 35.3862 64 39.4571C64.0276 43.6779 60.6178 47.0272 56.3106 47C52.0587 46.9864 48.8007 43.7323 48.8145 39.498ZM56.3382 43.7459C58.7955 43.7596 60.6454 41.9623 60.6316 39.5524C60.6316 37.197 58.6575 35.25 56.3106 35.2772C53.9914 35.3181 52.1415 37.1698 52.1139 39.4844C52.0863 41.9351 53.8671 43.7323 56.3382 43.7459Z" fill="#9EA5A4"/>
</svg>
