<svg width="36" height="37" viewBox="0 0 36 37" fill="none" xmlns="http://www.w3.org/2000/svg">
<path d="M35.0085 9.98653L31.767 13.2281C31.4365 13.5585 30.9021 13.5585 30.5716 13.2281L22.7666 5.42307C22.4361 5.09259 22.4361 4.55819 22.7666 4.22771L26.0081 0.986172C27.323 -0.328724 29.4606 -0.328724 30.7826 0.986172L35.0085 5.21212C36.3305 6.52702 36.3305 8.6646 35.0085 9.98653ZM19.9821 7.01219L1.51715 25.477L0.0264602 34.0203C-0.177456 35.1735 0.82806 36.1719 1.98124 35.9751L10.5246 34.4773L28.9895 16.0126C29.32 15.6821 29.32 15.1477 28.9895 14.8172L21.1845 7.01219C20.847 6.68171 20.3126 6.68171 19.9821 7.01219ZM8.72452 23.8949C8.33778 23.5082 8.33778 22.8894 8.72452 22.5027L19.5531 11.6741C19.9399 11.2874 20.5587 11.2874 20.9454 11.6741C21.3321 12.0608 21.3321 12.6796 20.9454 13.0663L10.1168 23.8949C9.73003 24.2816 9.11126 24.2816 8.72452 23.8949ZM6.18612 29.8084H9.56128V32.3609L5.02591 33.1554L2.83909 30.9686L3.63366 26.4333H6.18612V29.8084Z" fill="#FFC633"/>
<path d="M19.9821 7.24786L1.51715 25.7127L0.0264602 34.256C-0.177456 35.4091 0.82806 36.4076 1.98124 36.2107L10.5246 34.713L28.9895 16.2482C29.32 15.9177 29.32 15.3833 28.9895 15.0529L21.1845 7.24786C20.847 6.91738 20.3126 6.91738 19.9821 7.24786ZM8.72452 24.1306C8.33778 23.7438 8.33778 23.1251 8.72452 22.7383L19.5531 11.9098C19.9399 11.523 20.5587 11.523 20.9454 11.9098C21.3321 12.2965 21.3321 12.9153 20.9454 13.302L10.1168 24.1306C9.73003 24.5173 9.11126 24.5173 8.72452 24.1306ZM6.18612 30.0441H9.56128V32.5965L5.02591 33.3911L2.83909 31.2043L3.63366 26.6689H6.18612V30.0441Z" fill="#33CCC3"/>
</svg>
