<svg width="29" height="29" viewBox="0 0 29 29" fill="none" xmlns="http://www.w3.org/2000/svg">
<path d="M26.875 11.4062H17.5938V2.125C17.5938 0.986113 16.6701 0.0625 15.5312 0.0625H13.4688C12.3299 0.0625 11.4062 0.986113 11.4062 2.125V11.4062H2.125C0.986113 11.4062 0.0625 12.3299 0.0625 13.4688V15.5312C0.0625 16.6701 0.986113 17.5938 2.125 17.5938H11.4062V26.875C11.4062 28.0139 12.3299 28.9375 13.4688 28.9375H15.5312C16.6701 28.9375 17.5938 28.0139 17.5938 26.875V17.5938H26.875C28.0139 17.5938 28.9375 16.6701 28.9375 15.5312V13.4688C28.9375 12.3299 28.0139 11.4062 26.875 11.4062Z" fill="currentColor"/>
</svg>
