<svg width="32" height="36" viewBox="0 0 32 36" fill="none" xmlns="http://www.w3.org/2000/svg">
<path d="M25.1429 33.75H27.4286V31.5H25.1429V33.75ZM29.7143 20.25V22.5H25.1429V20.25H18.2857V33.75H22.8571V27H25.1429V29.25H32V20.25H29.7143ZM29.7143 33.75H32V31.5H29.7143V33.75Z" fill="#FFC633"/>
<path d="M11.4286 20.25H2.28571C1.02357 20.25 0 21.2576 0 22.5V31.5C0 32.7424 1.02357 33.75 2.28571 33.75H11.4286C12.6907 33.75 13.7143 32.7424 13.7143 31.5V22.5C13.7143 21.2555 12.6929 20.25 11.4286 20.25ZM9.14286 29.25H4.57143V24.75H9.14286V29.25ZM11.4286 2.25H2.28571C1.02357 2.25 0 3.25758 0 4.5V13.5C0 14.7424 1.02357 15.75 2.28571 15.75H11.4286C12.6907 15.75 13.7143 14.7424 13.7143 13.5V4.5C13.7143 3.25758 12.6929 2.25 11.4286 2.25ZM9.14286 11.25H4.57143V6.75H9.14286V11.25ZM29.7143 2.25H20.5714C19.3093 2.25 18.2857 3.25758 18.2857 4.5V13.5C18.2857 14.7424 19.3093 15.75 20.5714 15.75H29.7143C30.9764 15.75 32 14.7424 32 13.5V4.5C32 3.25758 30.9786 2.25 29.7143 2.25ZM27.4286 11.25H22.8571V6.75H27.4286V11.25Z" fill="#33CCC3"/>
</svg>
