<svg width="49" height="46" viewBox="0 0 49 46" fill="none" xmlns="http://www.w3.org/2000/svg">
<path d="M12.8976 41.8637C13 41.622 13.0511 41.4328 13.1433 41.2646C15.7739 36.5348 18.4045 31.8156 21.0965 26.9912C23.3587 28.1999 25.6106 28.1999 27.9648 27.0333C30.7285 31.9522 33.4615 36.8291 36.1945 41.685C31.1072 45.7001 20.4107 46.646 12.8976 41.8637Z" fill="#9EA5A4"/>
<path d="M48.0886 20.7374C42.551 20.7374 37.1055 20.7374 31.6702 20.7374C31.2813 19.6127 31.0458 18.425 30.4726 17.4265C29.8994 16.4175 29.0089 15.5977 28.1389 14.5676C30.8002 9.81683 33.5434 4.9294 36.2661 0.0629883C42.9399 3.02698 48.5492 12.7913 48.0886 20.7374Z" fill="#9EA5A4"/>
<path d="M17.5752 20.7374C12.0376 20.7374 6.58189 20.7374 1.13639 20.7374C-0.429701 14.6308 5.58901 3.84688 12.7746 0C14.1462 2.44897 15.5178 4.89794 16.8997 7.34692C18.261 9.76436 19.6122 12.1923 21.0452 14.7359C18.9673 16.1968 17.8107 18.1834 17.5752 20.7374Z" fill="#9EA5A4"/>
<path d="M24.4949 25.2569C22.0485 25.2359 20.2163 23.2914 20.2572 20.7478C20.2982 18.3199 22.1713 16.47 24.587 16.4805C27.0436 16.5015 28.8656 18.4355 28.8247 20.9896C28.7837 23.428 26.9105 25.2674 24.4949 25.2569Z" fill="#9EA5A4"/>
</svg>
