<svg width="76" height="76" viewBox="0 0 76 76" fill="none" xmlns="http://www.w3.org/2000/svg">
<g clip-path="url(#clip0)">
<path opacity="0.4" d="M30.875 11.875C35.2707 11.875 39.5305 13.3992 42.9284 16.1879C46.3264 18.9765 48.6523 22.8571 49.5098 27.1684C50.3674 31.4797 49.7035 35.9549 47.6314 39.8316C45.5592 43.7083 42.207 46.7466 38.1458 48.4287C34.0847 50.1109 29.5659 50.3329 25.3594 49.0568C21.153 47.7808 17.5191 45.0857 15.0769 41.4308C12.6348 37.7758 11.5355 33.3872 11.9664 29.0126C12.3973 24.638 14.3316 20.5482 17.4399 17.4399C19.2001 15.67 21.2938 14.2668 23.6 13.3116C25.9061 12.3564 28.3789 11.8681 30.875 11.875V11.875ZM30.875 0C13.8225 0 0 13.8225 0 30.875C0 47.9275 13.8225 61.75 30.875 61.75C47.9275 61.75 61.75 47.9275 61.75 30.875C61.75 13.8225 47.9275 0 30.875 0Z" fill="#33CCC3"/>
<path d="M74.9461 70.7602L70.7453 74.961C70.4156 75.2926 70.0236 75.5558 69.5918 75.7354C69.16 75.915 68.697 76.0075 68.2293 76.0075C67.7617 76.0075 67.2986 75.915 66.8668 75.7354C66.435 75.5558 66.043 75.2926 65.7133 74.961L50.9141 60.1617C50.5835 59.83 50.3216 59.4364 50.1433 59.0035C49.965 58.5705 49.8739 58.1066 49.875 57.6383V55.2188L55.2188 49.875H57.6383C58.1066 49.8739 58.5705 49.965 59.0035 50.1433C59.4364 50.3216 59.83 50.5835 60.1617 50.9141L74.961 65.7133C75.6258 66.3858 75.9974 67.2941 75.9946 68.2398C75.9918 69.1855 75.6149 70.0916 74.9461 70.7602V70.7602Z" fill="#33CCC3"/>
</g>
<defs>
<clipPath id="clip0">
<rect width="76" height="76" fill="white"/>
</clipPath>
</defs>
</svg>
