<svg width="82" height="72" viewBox="0 0 82 72" fill="none" xmlns="http://www.w3.org/2000/svg">
<path d="M80.0995 61.3077C82.6681 65.76 79.4439 71.3254 74.3136 71.3254H7.53225C2.39206 71.3254 -0.817266 65.7513 1.74636 61.3077L35.1375 3.41285C37.7073 -1.04155 44.1439 -1.03348 46.7092 3.41285L80.0995 61.3077V61.3077ZM40.9233 49.338C37.388 49.338 34.5219 52.204 34.5219 55.7394C34.5219 59.2748 37.388 62.1408 40.9233 62.1408C44.4587 62.1408 47.3247 59.2748 47.3247 55.7394C47.3247 52.204 44.4587 49.338 40.9233 49.338ZM34.8458 26.3283L35.8781 45.2542C35.9264 46.1398 36.6586 46.8331 37.5455 46.8331H44.3012C45.1881 46.8331 45.9203 46.1398 45.9686 45.2542L47.0009 26.3283C47.0531 25.3717 46.2915 24.5674 45.3335 24.5674H36.5131C35.5551 24.5674 34.7936 25.3717 34.8458 26.3283V26.3283Z" fill="white"/>
</svg>
