<svg width="24" height="30" viewBox="0 0 24 30" fill="none" xmlns="http://www.w3.org/2000/svg">
<path d="M20.4375 3.75H15.75C15.75 1.68164 14.0684 0 12 0C9.93164 0 8.25 1.68164 8.25 3.75H3.5625C2.00977 3.75 0.75 5.00977 0.75 6.5625V27.1875C0.75 28.7402 2.00977 30 3.5625 30H20.4375C21.9902 30 23.25 28.7402 23.25 27.1875V6.5625C23.25 5.00977 21.9902 3.75 20.4375 3.75ZM12 2.34375C12.7793 2.34375 13.4062 2.9707 13.4062 3.75C13.4062 4.5293 12.7793 5.15625 12 5.15625C11.2207 5.15625 10.5938 4.5293 10.5938 3.75C10.5938 2.9707 11.2207 2.34375 12 2.34375ZM19.1016 15.9258L10.7227 24.2344C10.4473 24.5098 10.002 24.5039 9.72656 24.2285L4.88672 19.3477C4.61133 19.0723 4.61719 18.627 4.89258 18.3516L6.55664 16.6992C6.83203 16.4238 7.27734 16.4297 7.55273 16.7051L10.248 19.4238L16.459 13.2598C16.7344 12.9844 17.1797 12.9902 17.4551 13.2656L19.1074 14.9297C19.3828 15.2109 19.377 15.6504 19.1016 15.9258Z" fill="white"/>
</svg>
