<svg width="36" height="12" viewBox="0 0 36 12" fill="none" xmlns="http://www.w3.org/2000/svg">
<path d="M23.0625 6C23.0625 8.79844 20.7984 11.0625 18 11.0625C15.2016 11.0625 12.9375 8.79844 12.9375 6C12.9375 3.20156 15.2016 0.9375 18 0.9375C20.7984 0.9375 23.0625 3.20156 23.0625 6ZM30.375 0.9375C27.5766 0.9375 25.3125 3.20156 25.3125 6C25.3125 8.79844 27.5766 11.0625 30.375 11.0625C33.1734 11.0625 35.4375 8.79844 35.4375 6C35.4375 3.20156 33.1734 0.9375 30.375 0.9375ZM5.625 0.9375C2.82656 0.9375 0.5625 3.20156 0.5625 6C0.5625 8.79844 2.82656 11.0625 5.625 11.0625C8.42344 11.0625 10.6875 8.79844 10.6875 6C10.6875 3.20156 8.42344 0.9375 5.625 0.9375Z" fill="white"/>
</svg>
