<svg width="24" height="30" viewBox="0 0 24 30" fill="none" xmlns="http://www.w3.org/2000/svg">
<path d="M20.6128 3.75H15.9253C15.9253 1.68164 14.2437 0 12.1753 0C10.1069 0 8.42529 1.68164 8.42529 3.75H3.73779C2.18506 3.75 0.925293 5.00977 0.925293 6.5625V27.1875C0.925293 28.7402 2.18506 30 3.73779 30H20.6128C22.1655 30 23.4253 28.7402 23.4253 27.1875V6.5625C23.4253 5.00977 22.1655 3.75 20.6128 3.75ZM6.55029 24.8438C5.771 24.8438 5.14404 24.2168 5.14404 23.4375C5.14404 22.6582 5.771 22.0312 6.55029 22.0312C7.32959 22.0312 7.95654 22.6582 7.95654 23.4375C7.95654 24.2168 7.32959 24.8438 6.55029 24.8438ZM6.55029 19.2188C5.771 19.2188 5.14404 18.5918 5.14404 17.8125C5.14404 17.0332 5.771 16.4062 6.55029 16.4062C7.32959 16.4062 7.95654 17.0332 7.95654 17.8125C7.95654 18.5918 7.32959 19.2188 6.55029 19.2188ZM6.55029 13.5938C5.771 13.5938 5.14404 12.9668 5.14404 12.1875C5.14404 11.4082 5.771 10.7812 6.55029 10.7812C7.32959 10.7812 7.95654 11.4082 7.95654 12.1875C7.95654 12.9668 7.32959 13.5938 6.55029 13.5938ZM12.1753 2.34375C12.9546 2.34375 13.5815 2.9707 13.5815 3.75C13.5815 4.5293 12.9546 5.15625 12.1753 5.15625C11.396 5.15625 10.769 4.5293 10.769 3.75C10.769 2.9707 11.396 2.34375 12.1753 2.34375ZM19.6753 23.9062C19.6753 24.1641 19.4644 24.375 19.2065 24.375H10.769C10.5112 24.375 10.3003 24.1641 10.3003 23.9062V22.9688C10.3003 22.7109 10.5112 22.5 10.769 22.5H19.2065C19.4644 22.5 19.6753 22.7109 19.6753 22.9688V23.9062ZM19.6753 18.2812C19.6753 18.5391 19.4644 18.75 19.2065 18.75H10.769C10.5112 18.75 10.3003 18.5391 10.3003 18.2812V17.3438C10.3003 17.0859 10.5112 16.875 10.769 16.875H19.2065C19.4644 16.875 19.6753 17.0859 19.6753 17.3438V18.2812ZM19.6753 12.6562C19.6753 12.9141 19.4644 13.125 19.2065 13.125H10.769C10.5112 13.125 10.3003 12.9141 10.3003 12.6562V11.7188C10.3003 11.4609 10.5112 11.25 10.769 11.25H19.2065C19.4644 11.25 19.6753 11.4609 19.6753 11.7188V12.6562Z" fill="white"/>
</svg>
