<svg width="36" height="42" viewBox="0 0 36 42" fill="none" xmlns="http://www.w3.org/2000/svg">
<path d="M6.42858 13.125H9.00001C9.70715 13.125 10.2857 12.5344 10.2857 11.8125V9.1875C10.2857 8.47383 9.70715 7.875 9.00001 7.875H6.42858C5.72546 7.875 5.14287 8.47383 5.14287 9.1875V11.8125C5.14287 12.5344 5.72546 13.125 6.42858 13.125ZM9.00001 28.875H6.42858C5.72546 28.875 5.14287 29.4738 5.14287 30.1875V32.8125C5.14287 33.5344 5.72546 34.125 6.42858 34.125H9.00001C9.70715 34.125 10.2857 33.5344 10.2857 32.8125V30.1875C10.2857 29.4738 9.70715 28.875 9.00001 28.875ZM13.1223 16.7918C12.6201 16.2791 11.8061 16.2791 11.3047 16.7918L7.7143 20.4586L6.69456 19.4168C6.19233 18.9041 5.37831 18.9041 4.87688 19.4168C4.37546 19.9295 4.37465 20.7605 4.87688 21.2723L6.80546 23.2411C7.05617 23.4938 7.38563 23.625 7.7143 23.625C8.04296 23.625 8.37226 23.4969 8.62314 23.2404L13.1231 18.6467C13.6286 18.1371 13.6286 17.3004 13.1223 16.7918Z" fill="#FFC633"/>
<path d="M30.8571 0H5.14286C2.30223 0 0 2.3502 0 5.25V36.75C0 39.6498 2.30223 42 5.14286 42H30.8571C33.6978 42 36 39.6498 36 36.75V5.25C36 2.3502 33.6938 0 30.8571 0ZM5.14286 9.1875C5.14286 8.47383 5.72545 7.875 6.42857 7.875H9C9.70714 7.875 10.2857 8.47383 10.2857 9.1875V11.8125C10.2857 12.5344 9.70714 13.125 9 13.125H6.42857C5.72545 13.125 5.14286 12.5344 5.14286 11.8125V9.1875ZM10.2857 32.8125C10.2857 33.5344 9.70714 34.125 9 34.125H6.42857C5.72545 34.125 5.14286 33.5344 5.14286 32.8125V30.1875C5.14286 29.4738 5.72545 28.875 6.42857 28.875H9C9.70714 28.875 10.2857 29.4738 10.2857 30.1875V32.8125ZM13.1223 18.6457L8.62232 23.2395C8.37321 23.4937 8.04375 23.625 7.71429 23.625C7.38482 23.625 7.05616 23.4937 6.80545 23.2395L4.87687 21.2707C4.37464 20.758 4.37464 19.927 4.87687 19.4152C5.37911 18.9033 6.19312 18.9025 6.69455 19.4152L7.71429 20.4586L11.3054 16.7926C11.8077 16.2799 12.6217 16.2799 13.1231 16.7926C13.6246 17.3053 13.6286 18.1371 13.1223 18.6457ZM29.5714 32.8125H16.7143C16.0071 32.8125 15.4286 32.2219 15.4286 31.5C15.4286 30.7781 16.0042 30.1875 16.7143 30.1875H29.5714C30.2815 30.1875 30.8571 30.7752 30.8571 31.5C30.8571 32.2248 30.2786 32.8125 29.5714 32.8125ZM29.5714 22.3125H16.7143C16.0071 22.3125 15.4286 21.7219 15.4286 21C15.4286 20.2781 16.0042 19.6875 16.7143 19.6875H29.5714C30.2786 19.6875 30.8571 20.2781 30.8571 21C30.8571 21.7219 30.2786 22.3125 29.5714 22.3125ZM29.5714 11.8125H16.7143C16.0071 11.8125 15.4286 11.2219 15.4286 10.5C15.4286 9.77812 16.0042 9.1875 16.7143 9.1875H29.5714C30.2786 9.1875 30.8571 9.77812 30.8571 10.5C30.8571 11.2219 30.2786 11.8125 29.5714 11.8125Z" fill="#33CCC3"/>
</svg>
