<svg width="49" height="43" viewBox="0 0 49 43" fill="none" xmlns="http://www.w3.org/2000/svg">
<g clip-path="url(#clip0)">
<path d="M46.2778 37.6249C46.2778 38.3992 45.6755 40.3124 43.5556 40.3124C42.9373 40.3129 42.3372 40.1055 41.8542 39.7245L34.6233 34.0136C31.7017 31.714 28.2031 30.2398 24.5 29.748V10.5685C28.203 10.0765 31.7016 8.60234 34.6233 6.30291L41.8542 0.587772C42.337 0.206324 42.9372 -0.00106553 43.5556 -0.000118844C45.6823 -0.000118844 46.2778 1.95336 46.2778 2.68738V37.6249Z" fill="#FFC633"/>
<path d="M46.2778 15.5269V24.7853C47.1047 24.3193 47.7921 23.6456 48.2702 22.8326C48.7484 22.0196 49.0002 21.0962 49.0002 20.1561C49.0002 19.216 48.7484 18.2927 48.2702 17.4797C47.7921 16.6667 47.1047 15.993 46.2778 15.5269ZM0 16.1249V24.1874C0 25.6129 0.57361 26.9801 1.59464 27.9881C2.61567 28.9961 4.00049 29.5624 5.44444 29.5624H8.31128C8.18958 30.4532 8.12763 31.351 8.12583 32.2499C8.12518 35.4783 8.86874 38.6645 10.3002 41.5671C10.7417 42.4649 11.7056 42.9999 12.7162 42.9999H19.0351C21.2512 42.9999 22.5817 40.4938 21.2384 38.7536C19.7932 36.8859 19.0114 34.6002 19.0139 32.2499C19.0167 31.3415 19.1429 30.4376 19.389 29.5624H21.7778V10.7499H5.44444C4.00049 10.7499 2.61567 11.3162 1.59464 12.3242C0.57361 13.3322 0 14.6993 0 16.1249Z" fill="#33CCC3"/>
</g>
<defs>
<clipPath id="clip0">
<rect width="49" height="43" fill="white" transform="translate(0 -0.00012207)"/>
</clipPath>
</defs>
</svg>
