<svg width="41" height="38" viewBox="0 0 41 38" fill="none" xmlns="http://www.w3.org/2000/svg">
<path d="M29.9701 34.4375H24.8808L23.7499 30.875H16.9642L15.8332 34.4375H10.7439C9.8109 34.4375 9.04751 35.2391 9.04751 36.2188C9.04751 37.1984 9.8109 38 10.7439 38H29.9701C30.9067 38 31.6666 37.2021 31.6666 36.2188C31.6666 35.2354 30.9102 34.4375 29.9701 34.4375ZM4.5237 4.75V21.375H36.1904V4.75H4.5237Z" fill="#FFC633"/>
<path d="M37.3214 0H3.39286C1.51972 0 0 1.5957 0 3.5625V27.3125C0 29.2793 1.51972 30.875 3.39286 30.875H37.3214C39.1946 30.875 40.7143 29.2793 40.7143 27.3125V3.5625C40.7143 1.5957 39.1946 0 37.3214 0ZM36.1905 21.375H4.52381V4.75H36.1905V21.375Z" fill="#33CCC3"/>
</svg>
