<svg width="90" height="90" viewBox="0 0 90 90" fill="none" xmlns="http://www.w3.org/2000/svg">
<g opacity="0.5">
<path d="M81.5625 16.875H66.0938L63.9176 11.0953C62.6836 7.80117 59.5547 5.625 56.0391 5.625H33.9785C30.4629 5.625 27.2988 7.80117 26.0684 11.0953L23.9062 16.875H8.4375C3.7793 16.875 0 20.6543 0 25.3125V75.9375C0 80.5957 3.7793 84.375 8.4375 84.375H81.5625C86.2207 84.375 90 80.5957 90 75.9375V25.3125C90 20.6543 86.2207 16.875 81.5625 16.875ZM45 67.5C35.6836 67.5 28.125 59.9414 28.125 50.625C28.125 41.3086 35.6836 33.75 45 33.75C54.3164 33.75 61.875 41.3086 61.875 50.625C61.875 59.9414 54.3164 67.5 45 67.5Z" fill="#33CCC3"/>
<path opacity="0.4" d="M45 67.5C35.6836 67.5 28.125 59.9414 28.125 50.625C28.125 41.3086 35.6836 33.75 45 33.75C54.3164 33.75 61.875 41.3086 61.875 50.625C61.875 59.9414 54.3164 67.5 45 67.5Z" fill="#33CCC3"/>
</g>
</svg>
