<svg width="414" height="328" viewBox="0 0 414 328" fill="none" xmlns="http://www.w3.org/2000/svg">
<g opacity="0.5">
<line y1="-0.5" x2="429.145" y2="-0.5" transform="matrix(0.96471 -0.263315 0.96471 0.263315 0 114)" stroke="white"/>
<line y1="-0.5" x2="429.145" y2="-0.5" transform="matrix(0.96471 -0.263315 0.96471 0.263315 0 200)" stroke="white"/>
<line y1="-0.5" x2="429.145" y2="-0.5" transform="matrix(0.96471 -0.263315 0.96471 0.263315 0 156)" stroke="white"/>
<line y1="-0.5" x2="429.145" y2="-0.5" transform="matrix(0.96471 -0.263315 0.96471 0.263315 0 242)" stroke="white"/>
<line y1="-0.5" x2="429.145" y2="-0.5" transform="matrix(0.96471 -0.263315 0.96471 0.263315 0 313)" stroke="white"/>
<line y1="-0.5" x2="429.145" y2="-0.5" transform="matrix(0.96471 -0.263315 0.96471 0.263315 0 129)" stroke="white"/>
<line y1="-0.5" x2="429.145" y2="-0.5" transform="matrix(0.96471 -0.263315 0.96471 0.263315 0 215)" stroke="white"/>
<line y1="-0.5" x2="429.145" y2="-0.5" transform="matrix(0.96471 -0.263315 0.96471 0.263315 0 286)" stroke="white"/>
<line y1="-0.5" x2="429.145" y2="-0.5" transform="matrix(0.96471 -0.263315 0.96471 0.263315 0 171)" stroke="white"/>
<line y1="-0.5" x2="429.145" y2="-0.5" transform="matrix(0.96471 -0.263315 0.96471 0.263315 0 257)" stroke="white"/>
<line y1="-0.5" x2="429.145" y2="-0.5" transform="matrix(0.96471 -0.263315 0.96471 0.263315 0 328)" stroke="white"/>
<line y1="-0.5" x2="429.145" y2="-0.5" transform="matrix(0.96471 -0.263315 0.96471 0.263315 0 143)" stroke="white"/>
<line y1="-0.5" x2="429.145" y2="-0.5" transform="matrix(0.96471 -0.263315 0.96471 0.263315 0 229)" stroke="white"/>
<line y1="-0.5" x2="429.145" y2="-0.5" transform="matrix(0.96471 -0.263315 0.96471 0.263315 0 300)" stroke="white"/>
<line y1="-0.5" x2="429.145" y2="-0.5" transform="matrix(0.96471 -0.263315 0.96471 0.263315 0 185)" stroke="white"/>
<line y1="-0.5" x2="429.145" y2="-0.5" transform="matrix(0.96471 -0.263315 0.96471 0.263315 0 271)" stroke="white"/>
</g>
</svg>
