<svg width="18" height="16" viewBox="0 0 18 16" fill="none" xmlns="http://www.w3.org/2000/svg">
<path d="M18 4.0625V14.1875C18 15.1191 17.2441 15.875 16.3125 15.875H1.6875C0.755859 15.875 0 15.1191 0 14.1875V4.0625C0 3.13086 0.755859 2.375 1.6875 2.375H4.78125L5.21367 1.21836C5.45977 0.560937 6.08906 0.125 6.79219 0.125H11.2043C11.9074 0.125 12.5367 0.560937 12.7828 1.21836L13.2188 2.375H16.3125C17.2441 2.375 18 3.13086 18 4.0625ZM13.2188 9.125C13.2188 6.79766 11.3273 4.90625 9 4.90625C6.67266 4.90625 4.78125 6.79766 4.78125 9.125C4.78125 11.4523 6.67266 13.3438 9 13.3438C11.3273 13.3438 13.2188 11.4523 13.2188 9.125ZM12.0938 9.125C12.0938 10.8301 10.7051 12.2188 9 12.2188C7.29492 12.2188 5.90625 10.8301 5.90625 9.125C5.90625 7.41992 7.29492 6.03125 9 6.03125C10.7051 6.03125 12.0938 7.41992 12.0938 9.125Z" fill="#9EA5A4"/>
</svg>
