<svg width="19" height="17" viewBox="0 0 19 17" fill="none" xmlns="http://www.w3.org/2000/svg">
<path d="M18.7862 14.5699C19.395 15.6252 18.6308 16.9444 17.4147 16.9444H1.58512C0.366716 16.9444 -0.39401 15.6232 0.213661 14.5699L8.12855 0.846729C8.7377 -0.209123 10.2634 -0.20721 10.8715 0.846729L18.7862 14.5699ZM9.50001 11.7326C8.662 11.7326 7.98265 12.412 7.98265 13.25C7.98265 14.088 8.662 14.7674 9.50001 14.7674C10.338 14.7674 11.0174 14.088 11.0174 13.25C11.0174 12.412 10.338 11.7326 9.50001 11.7326ZM8.05941 6.27852L8.3041 10.7646C8.31554 10.9746 8.48912 11.1389 8.69934 11.1389H10.3007C10.5109 11.1389 10.6845 10.9746 10.6959 10.7646L10.9406 6.27852C10.953 6.05177 10.7724 5.86111 10.5454 5.86111H8.45461C8.22754 5.86111 8.04704 6.05177 8.05941 6.27852Z" fill="#EB5757"/>
</svg>
