<svg width="13" height="17" viewBox="0 0 13 17" fill="none" xmlns="http://www.w3.org/2000/svg">
<path d="M5.84484 16.657C1.02049 9.66314 0.125 8.94535 0.125 6.375C0.125 2.85417 2.97917 0 6.5 0C10.0208 0 12.875 2.85417 12.875 6.375C12.875 8.94535 11.9795 9.66314 7.15516 16.657C6.83857 17.1144 6.16139 17.1143 5.84484 16.657ZM6.5 9.03125C7.96701 9.03125 9.15625 7.84201 9.15625 6.375C9.15625 4.90799 7.96701 3.71875 6.5 3.71875C5.03299 3.71875 3.84375 4.90799 3.84375 6.375C3.84375 7.84201 5.03299 9.03125 6.5 9.03125Z" fill="#2D9CDB"/>
</svg>
