<svg width="21" height="28" viewBox="0 0 21 28" fill="none" xmlns="http://www.w3.org/2000/svg">
<path d="M10.5 19.25C13.4001 19.25 15.75 16.9001 15.75 14V5.25C15.75 2.34992 13.4001 0 10.5 0C7.59992 0 5.25 2.34992 5.25 5.25V14C5.25 16.8984 7.55234 19.25 10.5 19.25ZM18.8125 10.5C18.0852 10.5 17.5 11.0852 17.5 11.7633V14C17.5 18.0102 14.111 21.2406 10.0461 20.9836C6.43234 20.7556 3.5 17.342 3.5 13.7211V11.7633C3.5 11.0852 2.91211 10.5 2.1875 10.5C1.46289 10.5 0.875 11.0852 0.875 11.7633V13.5215C0.875 18.4248 4.37336 22.7965 9.1875 23.4582V25.375H7C6.00523 25.375 5.20406 26.2052 5.25219 27.2109C5.27352 27.6609 5.67656 28 6.125 28H14.875C15.3246 28 15.7265 27.6601 15.7478 27.2109C15.7937 26.2063 14.9953 25.375 14 25.375H11.8125V23.5282C16.4992 22.8867 20.125 18.8617 20.125 14V11.7633C20.125 11.0852 19.5398 10.5 18.8125 10.5Z" fill="#33CCC3"/>
</svg>
