<svg width="22" height="23" viewBox="0 0 22 23" fill="none" xmlns="http://www.w3.org/2000/svg">
<path d="M6.6 11.0538C8.72781 11.0538 10.45 9.33157 10.45 7.20376C10.45 5.07595 8.72781 3.35376 6.6 3.35376C4.47219 3.35376 2.75 5.07595 2.75 7.20376C2.75 9.33157 4.47219 11.0538 6.6 11.0538ZM9.24 12.1538H8.95469C8.23969 12.4975 7.44563 12.7038 6.6 12.7038C5.75437 12.7038 4.96375 12.4975 4.24531 12.1538H3.96C1.77375 12.1538 0 13.9275 0 16.1138V17.1038C0 18.0147 0.739062 18.7538 1.65 18.7538H11.55C12.4609 18.7538 13.2 18.0147 13.2 17.1038V16.1138C13.2 13.9275 11.4262 12.1538 9.24 12.1538ZM16.5 11.0538C18.3219 11.0538 19.8 9.57563 19.8 7.75376C19.8 5.93188 18.3219 4.45376 16.5 4.45376C14.6781 4.45376 13.2 5.93188 13.2 7.75376C13.2 9.57563 14.6781 11.0538 16.5 11.0538ZM18.15 12.1538H18.0194C17.5416 12.3188 17.0363 12.4288 16.5 12.4288C15.9637 12.4288 15.4584 12.3188 14.9806 12.1538H14.85C14.1488 12.1538 13.5025 12.3566 12.9353 12.6831C13.7741 13.5872 14.3 14.7869 14.3 16.1138V17.4338C14.3 17.5094 14.2828 17.5816 14.2794 17.6538H20.35C21.2609 17.6538 22 16.9147 22 16.0038C22 13.8759 20.2778 12.1538 18.15 12.1538Z" fill="#2D9CDB"/>
</svg>
