<svg width="19" height="20" viewBox="0 0 19 20" fill="none" xmlns="http://www.w3.org/2000/svg">
<path d="M12.4762 9.67312H18.102C18.4396 9.67312 18.7254 9.38738 18.7031 9.04968C18.5139 6.23679 17.0555 3.77273 14.8994 2.21413C14.6248 2.01745 14.2352 2.10652 14.057 2.39226L11.0734 7.1571C11.9121 7.68777 12.4762 8.61179 12.4762 9.67312ZM11.0734 12.1854C10.617 12.4712 10.0789 12.6456 9.5 12.6456C8.92109 12.6456 8.38672 12.4712 7.92656 12.1854L4.94297 16.954C4.76484 17.2397 4.85391 17.6257 5.15078 17.7852C6.4459 18.4829 7.92656 18.8837 9.5 18.8837C11.0734 18.8837 12.5541 18.4829 13.8492 17.7852C14.1461 17.6257 14.2352 17.236 14.057 16.954L11.0734 12.1854ZM9.5 11.4544C10.4834 11.4544 11.2812 10.6565 11.2812 9.67312C11.2812 8.68972 10.4834 7.89187 9.5 7.89187C8.5166 7.89187 7.71875 8.68972 7.71875 9.67312C7.71875 10.6565 8.5166 11.4544 9.5 11.4544ZM0.898046 9.67312H6.52383C6.52383 8.61179 7.08789 7.68777 7.92656 7.16081L4.94297 2.39597C4.76484 2.11023 4.37519 2.01745 4.10058 2.21784C1.94453 3.77644 0.486132 6.2405 0.296874 9.05339C0.274608 9.38738 0.56035 9.67312 0.898046 9.67312Z" fill="#EB5757"/>
</svg>
