<svg width="21" height="21" viewBox="0 0 21 21" fill="none" xmlns="http://www.w3.org/2000/svg">
<path d="M20.5524 16.2299L15.7495 11.427C14.802 10.4795 13.387 10.2949 12.2468 10.8568L7.87449 6.48457V3.9375L2.62449 0L-0.000512727 2.625L3.93699 7.875H6.48406L10.8563 12.2473C10.2985 13.3875 10.479 14.8025 11.4264 15.75L16.2294 20.5529C16.8282 21.1518 17.7962 21.1518 18.3909 20.5529L20.5524 18.3914C21.1471 17.7926 21.1471 16.8246 20.5524 16.2299ZM13.6044 9.22852C14.7651 9.22852 15.8561 9.67969 16.6764 10.5L17.4721 11.2957C18.1202 11.0127 18.7354 10.6189 19.2686 10.0857C20.7903 8.56406 21.3071 6.42305 20.8231 4.47891C20.7329 4.10977 20.2694 3.98262 19.9987 4.25332L16.9471 7.30488L14.1622 6.84141L13.6987 4.05645L16.7503 1.00488C17.021 0.73418 16.8897 0.270703 16.5165 0.176367C14.5723 -0.303516 12.4313 0.213281 10.9137 1.73086C9.7448 2.8998 9.19519 4.44199 9.2239 5.98008L12.5913 9.34746C12.9235 9.26953 13.268 9.22852 13.6044 9.22852ZM9.34285 12.5918L7.01726 10.2662L0.766479 16.5211C-0.258911 17.5465 -0.258911 19.2076 0.766479 20.233C1.79187 21.2584 3.453 21.2584 4.47839 20.233L9.54792 15.1635C9.23621 14.3473 9.14187 13.4572 9.34285 12.5918ZM2.62449 19.3594C2.08308 19.3594 1.64011 18.9164 1.64011 18.375C1.64011 17.8295 2.07898 17.3906 2.62449 17.3906C3.17 17.3906 3.60886 17.8295 3.60886 18.375C3.60886 18.9164 3.17 19.3594 2.62449 19.3594Z" fill="#9EA5A4"/>
</svg>
