<svg width="19" height="17" viewBox="0 0 19 17" fill="none" xmlns="http://www.w3.org/2000/svg">
<path d="M7.19655 14.0828C7.09924 13.8862 6.92969 13.8663 6.86108 13.8663C6.79247 13.8663 6.62292 13.8859 6.53056 14.0718L6.27756 14.5812C6.06744 15.0055 5.45192 14.9587 5.30513 14.5118L4.74998 12.836L4.4 13.8945C4.20571 14.4809 3.66177 14.875 3.04757 14.875H2.63888C2.34728 14.875 2.1111 14.6373 2.1111 14.3438C2.1111 14.0502 2.34728 13.8125 2.63888 13.8125H3.04757C3.2069 13.8125 3.34808 13.7102 3.39854 13.5582L3.99856 11.7439C4.10741 11.4182 4.4089 11.1991 4.74998 11.1991C5.09105 11.1991 5.39255 11.4179 5.50107 11.7439L5.95891 13.1265C6.61039 12.589 7.74214 12.8045 8.13599 13.5967C8.19833 13.7222 8.31708 13.7942 8.44474 13.8045V11.0779L12.6669 6.85811V5.3125H8.18052C7.7451 5.3125 7.38886 4.95391 7.38886 4.51562V0H0.791663C0.35295 0 0 0.355273 0 0.796875V16.2031C0 16.6447 0.35295 17 0.791663 17H11.8749C12.3137 17 12.6666 16.6447 12.6666 16.2031V14.875L8.44441 14.8713C7.91267 14.8611 7.4357 14.5632 7.19655 14.0828ZM12.6666 4.04746C12.6666 3.83828 12.5841 3.63574 12.4357 3.48633L9.20638 0.232422C9.05795 0.0830078 8.85673 0 8.64562 0H8.44441V4.25H12.6666V4.04746ZM9.49996 11.5202V13.8125H11.7757L17.1088 8.4077L14.8697 6.15387L9.49996 11.5202ZM18.7538 5.55588L17.7026 4.4977C17.3747 4.16766 16.8426 4.16766 16.5148 4.4977L15.6159 5.40248L17.855 7.65631L18.7538 6.75152C19.0821 6.42148 19.0821 5.88592 18.7538 5.55588Z" fill="#2D9CDB"/>
</svg>
