<svg width="17" height="19" viewBox="0 0 17 19" fill="none" xmlns="http://www.w3.org/2000/svg">
<path d="M0.632812 7.125H16.3672C16.6121 7.125 16.8125 7.32539 16.8125 7.57031V17.2188C16.8125 18.2021 16.0146 19 15.0312 19H1.96875C0.985352 19 0.1875 18.2021 0.1875 17.2188V7.57031C0.1875 7.32539 0.387891 7.125 0.632812 7.125ZM16.8125 5.49219V4.15625C16.8125 3.17285 16.0146 2.375 15.0312 2.375H13.25V0.445312C13.25 0.200391 13.0496 0 12.8047 0H11.3203C11.0754 0 10.875 0.200391 10.875 0.445312V2.375H6.125V0.445312C6.125 0.200391 5.92461 0 5.67969 0H4.19531C3.95039 0 3.75 0.200391 3.75 0.445312V2.375H1.96875C0.985352 2.375 0.1875 3.17285 0.1875 4.15625V5.49219C0.1875 5.73711 0.387891 5.9375 0.632812 5.9375H16.3672C16.6121 5.9375 16.8125 5.73711 16.8125 5.49219Z" fill="#2D9CDB"/>
</svg>
