<svg width="19" height="19" viewBox="0 0 19 19" fill="none" xmlns="http://www.w3.org/2000/svg">
<path d="M16.7188 18.6875H2.28125C1.19434 18.6875 0.3125 17.8057 0.3125 16.7188V2.28125C0.3125 1.19434 1.19434 0.3125 2.28125 0.3125H16.7188C17.8057 0.3125 18.6875 1.19434 18.6875 2.28125V16.7188C18.6875 17.8057 17.8057 18.6875 16.7188 18.6875ZM10.0783 6.29668L4.5125 11.8625L4.2541 14.2045C4.22129 14.5162 4.48379 14.7828 4.79961 14.75L7.1416 14.4916L12.7074 8.92578C12.8018 8.83145 12.8018 8.67559 12.7074 8.57715L10.4311 6.30078C10.3285 6.20234 10.1727 6.20234 10.0783 6.29668ZM14.4629 5.77168L13.2283 4.53711C12.8428 4.15156 12.2193 4.15156 11.8379 4.53711L10.8904 5.48457C10.7961 5.57891 10.7961 5.73477 10.8904 5.8332L13.1668 8.10957C13.2611 8.20391 13.417 8.20391 13.5154 8.10957L14.4629 7.16211C14.8443 6.78066 14.8443 6.15723 14.4629 5.77168Z" fill="#2D9CDB"/>
</svg>
