<svg width="50" height="50" viewBox="0 0 50 50" fill="none" xmlns="http://www.w3.org/2000/svg">
<path d="M50.0008 25.0004C50.0008 11.193 38.8077 -4.39396e-06 25.0004 -4.18789e-06C11.193 -3.98181e-06 -1.69634e-06 11.193 -1.0928e-06 25.0004C-4.89264e-07 38.8077 11.1931 50.0008 25.0004 50.0008C38.8077 50.0008 50.0008 38.8077 50.0008 25.0004Z" fill="#464646"/>
<path d="M37.6281 30.004C36.9314 31.5638 36.5883 32.2605 35.694 33.6435C34.4358 35.5673 32.6681 37.9693 30.4636 37.9901C28.5086 38.0109 28.0095 36.7111 25.3579 36.7319C22.7063 36.7423 22.1551 38.0213 20.2002 38.0005C18.0061 37.9797 16.3216 35.8168 15.0633 33.8827C11.5486 28.4963 11.1743 22.174 13.3476 18.8048C14.8866 16.4132 17.3198 15.0198 19.6075 15.0198C21.9368 15.0198 23.403 16.2988 25.3267 16.2988C27.1984 16.2988 28.3319 15.0094 31.0251 15.0094C33.0632 15.0094 35.2261 16.122 36.7547 18.0561C31.7322 20.8325 32.5433 28.0699 37.6281 30.004ZM28.987 12.8673C29.9644 11.6091 30.7027 9.82051 30.4428 8.00077C28.8414 8.11515 26.9697 9.13421 25.8882 10.4652C24.89 11.6714 24.0789 13.4704 24.3908 15.2173C26.1378 15.2693 27.9471 14.2191 28.987 12.8673Z" fill="white"/>
</svg>
