<svg width="50" height="50" viewBox="0 0 50 50" fill="none" xmlns="http://www.w3.org/2000/svg">
<g clip-path="url(#clip0_524_6011)">
<path d="M50.0009 25.0127C50.0009 11.2053 38.8078 0.0122942 25.0005 0.0122944C11.1932 0.0122946 0.000120374 11.2053 0.000120978 25.0127C0.000121581 38.82 11.1932 50.0131 25.0005 50.0131C38.8078 50.0131 50.0009 38.82 50.0009 25.0127Z" fill="#275C9E"/>
<path d="M32.385 9.6531C32.385 9.6531 27.3138 9.0748 25.6234 9.87552C25.4455 9.96448 25.2231 10.0535 25.0452 10.1424C24.4669 10.3648 23.2658 11.0766 22.2871 12.9004C22.2871 12.9004 21.5754 14.3239 21.6644 16.5926L21.6199 20.2848H17.0825V25.5339H21.6199L21.6644 38.968L27.0024 39.0125L27.0469 25.5784H31.5843L32.296 20.3293L27.0914 20.3737V16.4591C27.0914 16.4591 27.0914 14.4129 29.8049 14.4574H32.385V9.6531Z" fill="white"/>
</g>
<defs>
<clipPath id="clip0_524_6011">
<rect width="50" height="50" fill="white" transform="translate(0.000732422)"/>
</clipPath>
</defs>
</svg>
