<svg width="50" height="50" viewBox="0 0 50 50" fill="none" xmlns="http://www.w3.org/2000/svg">
<path d="M50.0008 25.0003C50.0008 11.193 38.8077 -3.49115e-05 25.0004 -3.47055e-05C11.193 -3.44994e-05 -1.69634e-06 11.193 -1.0928e-06 25.0003C-4.89264e-07 38.8077 11.1931 50.0007 25.0004 50.0007C38.8077 50.0007 50.0008 38.8077 50.0008 25.0003Z" fill="white"/>
<path d="M36.1719 37.375C40.0391 33.7656 41.7578 27.75 40.7266 21.9922H25.3438V28.3516H34.1094C33.7656 30.4141 32.5625 32.1328 30.8438 33.25L36.1719 37.375Z" fill="#4285F4"/>
<path d="M10.7344 32.3047C11.8649 34.5317 13.4862 36.4729 15.4761 37.9822C17.4659 39.4915 19.7725 40.5293 22.2218 41.0175C24.6711 41.5057 27.1993 41.4316 29.6157 40.8006C32.0322 40.1696 34.2739 38.9983 36.1719 37.375L30.8438 33.25C26.2891 36.2578 18.7266 35.1406 16.1484 28.0938L10.7344 32.3047Z" fill="#34A853"/>
<path d="M16.1484 28.0938C15.4609 25.9453 15.4609 23.9688 16.1484 21.8203L10.7344 17.6094C8.75781 21.5625 8.15625 27.1484 10.7344 32.3047L16.1484 28.0938Z" fill="#FBBC02"/>
<path d="M16.1484 21.8204C18.0391 15.8907 26.1172 12.4532 31.5312 17.5235L36.2578 12.8829C29.5547 6.43755 16.4922 6.69536 10.7344 17.6094L16.1484 21.8204Z" fill="#EA4335"/>
</svg>
