<svg width="50" height="50" viewBox="0 0 50 50" fill="none" xmlns="http://www.w3.org/2000/svg">
<path d="M25 50C38.8071 50 50 38.8071 50 25C50 11.1929 38.8071 0 25 0C11.1929 0 0 11.1929 0 25C0 38.8071 11.1929 50 25 50Z" fill="#FFE600"/>
<path d="M25.0323 9.29028C15.613 9.29028 8.00006 15.3548 8.00006 22.7742C8.00006 27.0967 10.5807 30.9677 14.6452 33.4193C14.9678 33.7419 15.2259 34.258 14.9033 35.0322C14.9033 35.0322 13.613 38.3225 11.2259 40.4516C11.2259 40.4516 10.9678 40.8387 12.1936 40.5806C12.1936 40.5806 16.7743 39.4838 21.6775 36.3225C21.6775 36.3225 21.871 36.1935 22.4517 36.1935C22.4517 36.1935 22.8388 36.1935 23.4194 36.1935C23.9355 36.258 24.4517 36.258 25.0323 36.258C34.4517 36.258 42.0646 30.1935 42.0646 22.7742C42.0646 15.3548 34.4517 9.29028 25.0323 9.29028Z" fill="#381E1E"/>
<path d="M8.83876 23.0322C8.83876 15.9354 16.1291 10.1935 25.1613 10.1935C31.8065 10.1935 37.4839 13.2903 40.0646 17.7419C37.613 13.0322 31.742 9.67737 24.8388 9.67737C15.742 9.67737 8.38715 15.4838 8.38715 22.5806C8.38715 25.9999 10.0646 29.0967 12.8388 31.3548C10.3226 29.1612 8.83876 26.1935 8.83876 23.0322Z" fill="#6F5B64"/>
<path d="M15.0969 33.3548C15.0969 33.3548 16.1291 34.258 14.9679 36.3225C14.9679 36.3225 13.6775 38.6451 12.2582 39.9354C12.2582 39.9354 11.9356 40.387 12.7098 39.8709C12.7098 39.8709 14.2582 38.516 15.4195 36.3225C15.4195 36.3225 16.4517 34.5806 15.355 33.3548C15.4195 33.3548 14.7743 32.8386 15.0969 33.3548Z" fill="#6F5B64"/>
<path d="M22.7097 17.2258L22.129 16.6452L22.7097 16.0645C22.7742 16 22.7742 15.871 22.7097 15.8065C22.6452 15.7419 22.5161 15.7419 22.4516 15.8065L21.8065 16.5161V16.0645V15.7419C21.6129 15.7419 21.4839 15.871 21.4839 16.0645V17.2258C21.4839 17.4194 21.6129 17.5484 21.8065 17.5484V17.2258V16.7097L22.4516 17.4194C22.5161 17.4839 22.6452 17.4839 22.7097 17.4194C22.7742 17.4194 22.7742 17.2903 22.7097 17.2258Z" fill="#6F5B64"/>
<path d="M25.5484 17.2258L24.9678 16.6452L25.5484 16.0645C25.613 16 25.613 15.871 25.5484 15.8065C25.4839 15.7419 25.3549 15.7419 25.2904 15.8065L24.6452 16.5161V16.0645V15.7419C24.4517 15.7419 24.3226 15.871 24.3226 16.0645V17.2258C24.3226 17.4194 24.4517 17.5484 24.6452 17.5484V17.2258V16.7097L25.2904 17.4194C25.3549 17.4839 25.4839 17.4839 25.5484 17.4194C25.6775 17.4194 25.6775 17.2903 25.5484 17.2258Z" fill="#6F5B64"/>
<path d="M28.5162 16.9032C28.5162 17.2258 28.2581 17.4838 27.9355 17.4838H27.871C27.5484 17.4838 27.2903 17.2258 27.2903 16.9032V16.258C27.2903 15.9354 27.5484 15.6774 27.871 15.6774H27.9355C28.2581 15.6774 28.5162 15.9354 28.5162 16.258V16.9032ZM28.1291 16.387C28.1291 16.1935 28 16.0645 27.8065 16.0645C27.6129 16.0645 27.4839 16.1935 27.4839 16.387V16.8387C27.4839 17.0322 27.6129 17.1612 27.8065 17.1612C28 17.1612 28.1291 17.0322 28.1291 16.8387V16.387Z" fill="#6F5B64"/>
<path d="M23.871 15.8065C23.8065 15.7419 23.6774 15.7419 23.6129 15.7419C23.4839 15.7419 23.4194 15.7419 23.3549 15.8065C23.1613 15.9355 23.0323 16.129 23.0323 16.3226V16.4516V16.7742V17.2258C23.0323 17.4194 23.1613 17.5484 23.3549 17.5484V17.2258V16.8387V16.7742H23.871V16.8387V17.2258V17.5484C24.0645 17.5484 24.1936 17.4194 24.1936 17.2258V16.7742V16.4516V16.3226C24.1291 16.0645 24 15.871 23.871 15.8065ZM23.8065 16.4516H23.2904C23.2904 16.3871 23.2904 16.3871 23.2904 16.3226C23.2904 16.1936 23.4194 16.0645 23.5484 16.0645C23.6774 16.0645 23.8065 16.1936 23.8065 16.3226C23.871 16.3871 23.8065 16.3871 23.8065 16.4516Z" fill="#6F5B64"/>
<path d="M26.7097 15.8065C26.6452 15.7419 26.5162 15.7419 26.4517 15.7419C26.3226 15.7419 26.2581 15.7419 26.1291 15.8065C25.9356 15.9355 25.8065 16.129 25.8065 16.3226V16.4516V16.7742V17.2258C25.8065 17.4194 25.9356 17.5484 26.1291 17.5484V17.2258V16.8387V16.7742H26.7097V16.8387V17.2258V17.5484C26.9033 17.5484 27.0323 17.4194 27.0323 17.2258V16.7742V16.4516V16.3226C27.0323 16.0645 26.9033 15.871 26.7097 15.8065ZM26.7097 16.4516H26.1936C26.1936 16.3871 26.1936 16.3871 26.1936 16.3226C26.1936 16.1936 26.3226 16.0645 26.5162 16.0645C26.6452 16.0645 26.7743 16.1936 26.7743 16.3226C26.7097 16.3871 26.7097 16.3871 26.7097 16.4516Z" fill="#6F5B64"/>
<path d="M17.9355 19.4193H12.9678C12.5807 19.4193 12.2581 19.7419 12.2581 20.129C12.2581 20.5161 12.5807 20.8387 12.9678 20.8387H14.7097V26.7096C14.7097 27.1612 15.0323 27.5483 15.4839 27.5483C15.871 27.5483 16.2581 27.1612 16.2581 26.7096V20.8387H17.9355C18.3226 20.8387 18.6452 20.5161 18.6452 20.129C18.6452 19.7419 18.3226 19.4193 17.9355 19.4193Z" fill="#F3DD28"/>
<path d="M24.7097 26.3225L21.871 19.9354C21.8065 19.8709 21.6774 19.6774 21.5484 19.5483C21.4839 19.5483 21.4839 19.4838 21.4194 19.4838C21.3548 19.4193 21.2258 19.4193 21.1613 19.4193C21.0323 19.4193 20.9677 19.4193 20.9032 19.4838C20.8387 19.4838 20.8387 19.5483 20.7742 19.5483C20.6452 19.6774 20.4516 19.8709 20.4516 19.9354L17.6129 26.3225C17.5484 26.5161 17.4839 26.7741 17.5484 26.9677C17.6129 27.1612 17.7419 27.3548 17.9355 27.4193C18 27.4838 18.129 27.4838 18.2581 27.4838C18.5806 27.4838 18.8387 27.2903 19.0323 26.9677L19.5484 25.8064H19.6129H22.9032L23.4194 26.9677C23.5484 27.2903 23.871 27.4838 24.1936 27.4838C24.3226 27.4838 24.3871 27.4838 24.4516 27.4193C24.6452 27.3548 24.7742 27.1612 24.8387 26.9677C24.7742 26.7741 24.7742 26.5161 24.7097 26.3225ZM19.9355 24.5806L21.0968 22L22.2581 24.5806H19.9355Z" fill="#F3DD28"/>
<path d="M30.2581 26.1935H26.9032V20.387C26.9032 19.9354 26.5807 19.5483 26.1291 19.5483C25.6774 19.5483 25.3549 19.9354 25.3549 20.387V26.7741C25.3549 27.2903 25.6129 27.4838 26.1291 27.4838H30.2581C30.5807 27.4838 30.9032 27.1612 30.9032 26.8387C30.9032 26.4516 30.5807 26.1935 30.2581 26.1935Z" fill="#F3DD28"/>
<path d="M37.3549 26.0645L34.9033 22.9678L36.7743 21.0323C37.1614 20.6452 37.2259 20.0645 36.9678 19.8065C36.8388 19.6774 36.7098 19.6129 36.5162 19.6129C36.2581 19.6129 35.9356 19.742 35.742 20L33.0969 22.7097V20.4516C33.0969 19.9355 32.7098 19.4839 32.2581 19.4839C31.8065 19.4839 31.4194 19.9355 31.4194 20.4516V26.5807C31.4194 27.0968 31.8065 27.5484 32.2581 27.5484C32.7098 27.5484 33.0969 27.0968 33.0969 26.5807V24.8387L33.8065 24.0645L36.1291 27.0323C36.3227 27.2903 36.6452 27.4194 36.9033 27.4194C37.0969 27.4194 37.2259 27.3549 37.3549 27.2903C37.5485 27.1613 37.613 26.9678 37.613 26.7097C37.613 26.5161 37.4839 26.2581 37.3549 26.0645Z" fill="#F3DD28"/>
</svg>
