<svg width="50" height="50" viewBox="0 0 50 50" fill="none" xmlns="http://www.w3.org/2000/svg">
<g clip-path="url(#clip0_524_6006)">
<path d="M25 50C38.8071 50 50 38.8071 50 25C50 11.1929 38.8071 0 25 0C11.1929 0 0 11.1929 0 25C0 38.8071 11.1929 50 25 50Z" fill="#1DC800"/>
<path d="M11.1922 12.6821H20.1518C20.1518 12.6821 28.2897 24.9742 28.53 25.3038C28.7761 25.6368 28.8046 25.3038 28.8046 25.3038C28.4292 23.4018 28.0218 22.548 28.0218 19.5051V12.6821H36.9436V35.4536H28.0218C28.0218 35.4536 20.051 23.8173 19.8107 23.4957C19.5692 23.1719 19.5372 23.4957 19.5372 23.4957C19.8439 25.0658 20.1151 25.3279 20.1151 28.0551V35.4537H11.1921V12.6821H11.1922Z" fill="white"/>
</g>
<defs>
<clipPath id="clip0_524_6006">
<rect width="50" height="50" fill="white" transform="translate(0.000732422)"/>
</clipPath>
</defs>
</svg>
